<?xml version="1.0" standalone="no"?>
<!DOCTYPE svg PUBLIC "-//W3C//DTD SVG 1.1//EN" "http://www.w3.org/Graphics/SVG/1.1/DTD/svg11.dtd" >
<svg xmlns="http://www.w3.org/2000/svg" xmlns:xlink="http://www.w3.org/1999/xlink" version="1.1">
<metadata>
Created by FontForge 20141024 at Tue Oct 28 11:41:12 2014
 By World Wide Web Server
</metadata>
<defs>
<font id="PillGothic300mg-Regular" horiz-adv-x="476" >
  <font-face 
    font-family="Pill Gothic 300mg Rg"
    font-weight="400"
    font-stretch="normal"
    units-per-em="1000"
    panose-1="2 0 5 3 3 0 0 2 0 4"
    ascent="800"
    descent="-200"
    x-height="490"
    cap-height="680"
    bbox="-44 -261 843 927"
    underline-thickness="50"
    underline-position="-50"
    unicode-range="U+0020-FB04"
  />
<missing-glyph horiz-adv-x="218" 
 />
    <glyph glyph-name="fi" unicode="fi" horiz-adv-x="498" 
d="M246 743q29 0 57.5 -8t53 -19t42.5 -22t27 -18l-36 -62q-9 5 -23.5 15t-33 20.5t-40.5 18t-46 7.5q-38 0 -54 -19t-16 -52v-114h88v-59h-89v-431h-74v431h-81v59h81v120q0 35 11 60t30 41.5t45.5 24t57.5 7.5zM342 490h75v-490h-75v490z" />
    <glyph glyph-name="fl" unicode="fl" horiz-adv-x="550" 
d="M250 743q18 0 43.5 -3t51.5 -8.5t49.5 -12.5t37.5 -15h28v-704h-75v650q-12 6 -30.5 10.5t-38.5 7.5t-38 4.5t-28 1.5q-38 0 -55.5 -18.5t-17.5 -50.5v-115h91v-60h-91v-430h-75v430h-81v60h82v116q0 71 41.5 104t105.5 33z" />
    <glyph glyph-name="germandbls" unicode="ss" horiz-adv-x="547" 
d="M47 490h44v108q0 66 33.5 105t101.5 39q23 0 50 -8.5t48 -19.5l-29 -59q-13 5 -30.5 11.5t-31.5 6.5q-42 0 -56.5 -25t-14.5 -66v-92h316v-51l-100 -145h18q48 -5 73 -30.5t25 -80.5v-82q0 -27 -10.5 -47.5t-28 -34t-40.5 -20.5t-48 -7q-42 0 -78 18.5t-55 58.5l50 39
q9 -23 32 -39t46 -16q26 0 42.5 13t16.5 44v63q0 32 -11 48t-41 16h-77v53l99 141h-227v-431h-73v431h-44v59z" />
    <glyph glyph-name="arrowright" unicode="&#x2d;&#x3e;" horiz-adv-x="414" 
d="M209 457l159 -204l-149 -200l-44 38l95 128h-223v68h223l-103 132z" />
    <glyph glyph-name="arrowleft" unicode="&#x3c;&#x2d;" horiz-adv-x="400" 
d="M231 414l-98 -128h220v-67h-220l95 -119l-35 -31l-146 183l150 194z" />
    <glyph glyph-name="smiley" unicode="&#x28;&#x3a;" horiz-adv-x="736" 
d="M32 350q0 76 24.5 142t69 115t107 77t138.5 28q75 0 137 -28.5t106.5 -77.5t69 -115t24.5 -141t-24.5 -141t-69 -114.5t-106.5 -76.5t-137 -28t-137.5 28.5t-107.5 77t-69.5 114t-24.5 140.5zM89 350q0 -63 20.5 -119t57.5 -98t89.5 -66.5t115.5 -24.5t114 24.5t88 66.5
t57 98t20 119t-20 119t-57 98t-88.5 66.5t-114.5 24.5t-115 -24.5t-89 -66.5t-57.5 -98t-20.5 -119zM567 294q-19 -60 -61 -97t-103 -37h-65q-59 0 -100.5 38t-61.5 95l53 23q14 -42 41 -71.5t68 -29.5h65q21 0 39 8.5t32.5 23t25.5 33.5t18 39zM234 512h83v-119h-83v119z
M426 512h83v-119h-83v119z" />
    <glyph glyph-name="wink" unicode="&#x28;&#x3b;" horiz-adv-x="736" 
d="M32 351q0 75 24.5 141t69 114.5t107 76.5t138.5 28q75 0 137 -28.5t106.5 -77t69 -114t24.5 -140.5t-24.5 -141t-69 -115t-106.5 -77t-137 -28t-137.5 28.5t-107.5 77t-69.5 114.5t-24.5 141zM89 351q0 -63 20.5 -119.5t57.5 -98.5t89.5 -66.5t115.5 -24.5t114 24.5
t88 67t57 98.5t20 119t-20 119t-57 97.5t-88.5 65.5t-114.5 24t-115 -24.5t-89 -66t-57.5 -97t-20.5 -118.5zM564 280q-19 -60 -61 -97.5t-104 -37.5h-64q-57 0 -99.5 38.5t-61.5 95.5l53 23q13 -42 40.5 -72t67.5 -30h64q21 0 39.5 8.5t33 23t25.5 33.5t18 39zM221 500h94
v-108h-94v108zM395 421v49h170v-49h-170z" />
    <glyph glyph-name="ff" unicode="ff" horiz-adv-x="507" 
d="M220 729q38 0 74 -13t68 -33q21 26 48 38t58 12q22 0 47.5 -8.5t42.5 -17.5l-25 -59q-16 10 -32 15.5t-31 5.5q-20 0 -32.5 -7.5t-19.5 -20t-9.5 -29t-2.5 -34.5v-89h94v-59h-94v-430h-73v430h-79v59h79v91v22.5t3 20.5q-26 20 -56.5 28.5t-53.5 8.5q-40 0 -55.5 -24
t-15.5 -58v-88h75v-59h-75v-431h-74v431h-82v59h82v90q0 74 36.5 111.5t102.5 37.5z" />
    <glyph glyph-name="f_j" unicode="fj" horiz-adv-x="517" 
d="M267 728q38 0 83.5 -15.5t84.5 -38.5l-26 -67q-82 51 -139 51q-44 0 -60.5 -19.5t-16.5 -56.5v-92h87v-60h-88v-430h-75v430h-77v60h78v95q0 77 40 109.5t109 33.5zM347 490h74v-461q0 -61 -12 -104t-34.5 -72.5t-55.5 -49t-75 -32.5l-23 54q33 17 57 34.5t39 40.5t22 55
t7 78z" />
    <glyph glyph-name="T_h" unicode="Th" horiz-adv-x="868" 
d="M12 610v70h460v-70h-207v-610h-76v610h-177zM682 501q77 0 109 -42t32 -119v-340h-76v340q0 44 -18.5 67.5t-63.5 23.5q-23 0 -44.5 -11.5t-37.5 -30.5t-25.5 -42t-9.5 -46v-301h-76v680h76v-259q20 33 57 56.5t77 23.5z" />
    <glyph glyph-name=".notdef" horiz-adv-x="218" 
 />
    <glyph glyph-name=".null" horiz-adv-x="0" 
 />
    <glyph glyph-name="nonmarkingreturn" horiz-adv-x="218" 
 />
    <glyph glyph-name="space" unicode=" " horiz-adv-x="218" 
 />
    <glyph glyph-name="Lslash" unicode="&#x141;" 
d="M197 680v-274l100 68l21 -47l-121 -79v-278h267v-70h-343v307l-89 -59l-20 45l109 72v315h76z" />
    <glyph glyph-name="lslash" unicode="&#x142;" horiz-adv-x="322" 
d="M45 263l-24 45l105 71v351h76v-318l84 58l24 -43l-108 -74v-353h-76v320z" />
    <glyph glyph-name="ring" unicode="&#x2da;" horiz-adv-x="217" 
d="M109 557q-35 0 -54.5 22.5t-19.5 55.5q0 42 23 60t51 18q37 0 55.5 -22t18.5 -56q0 -40 -22.5 -59t-51.5 -19zM77 634q0 -25 11 -31.5t22 -6.5q14 0 23.5 8.5t9.5 29.5q0 26 -11 34t-22 8q-14 0 -23.5 -10.5t-9.5 -31.5z" />
    <glyph glyph-name="exclam" unicode="!" horiz-adv-x="236" 
d="M162 237h-68l-7 443h82zM82 108h93v-108h-93v108z" />
    <glyph glyph-name="quotedbl" unicode="&#x22;" horiz-adv-x="279" 
d="M56 679h62l-4 -221h-55zM163 679h61l-3 -221h-55z" />
    <glyph glyph-name="numbersign" unicode="#" horiz-adv-x="575" 
d="M364 460l26 165h54l-23 -165h107v-52h-115l-31 -204h119v-53h-127l-21 -151h-57l20 151h-92l-21 -151h-56l20 151h-120v53h129l31 204h-133v52h141l24 165h58l-25 -165h92zM325 204l31 204h-93l-31 -204h93z" />
    <glyph glyph-name="dollar" unicode="$" horiz-adv-x="463" 
d="M415 291v-118q0 -73 -39.5 -120t-105.5 -55v-123h-66v124q-57 4 -98 35.5t-58 83.5l56 38q11 -26 23.5 -43t28.5 -27t35 -14t44 -4q54 0 79 28.5t25 81.5v67l-274 163v101q0 45 11.5 75.5t31.5 50.5t47 30.5t58 14.5v109h65v-111q51 -5 86 -34t52 -73l-54 -42
q-23 47 -50.5 64t-65.5 17q-20 0 -39 -3.5t-33.5 -14.5t-23.5 -31.5t-9 -54.5v-52z" />
    <glyph glyph-name="percent" unicode="%" horiz-adv-x="617" 
d="M290 490q0 -56 -31 -78.5t-81 -22.5q-54 0 -84 26.5t-30 74.5v98q0 54 33 78t81 24q54 0 83 -27t29 -75v-98zM553 92q0 -56 -31.5 -79t-81.5 -23q-55 0 -85 27t-30 76v95q0 54 33.5 79.5t81.5 25.5q55 0 84 -29t29 -76v-96zM131 499q0 -24 13.5 -35.5t33.5 -11.5
q24 0 35 12.5t11 32.5v85q0 23 -13.5 34t-32.5 11q-23 0 -35 -13t-12 -32v-83zM394 100q0 -24 13 -35.5t33 -11.5q24 0 35 12.5t11 32.5v85q0 23 -13.5 35t-32.5 12q-23 0 -34.5 -14t-11.5 -33v-83zM71 0l366 680h69l-362 -680h-73z" />
    <glyph glyph-name="ampersand" unicode="&#x26;" horiz-adv-x="586" 
d="M547 289l-95 -126l100 -128l-55 -49l-89 115q-38 -51 -81.5 -79.5t-98.5 -28.5q-39 0 -72.5 10.5t-57.5 31.5t-37.5 53.5t-13.5 75.5q0 30 12.5 59.5t33 58t45.5 56t50 53.5l-72 93v86q0 60 35 90t89 30q65 0 97 -36t32 -101q0 -28 -7 -51t-18 -42.5t-26 -37.5t-32 -38
l120 -166l88 114zM228 65q21 0 40.5 8.5t36.5 22.5t31.5 31t25.5 34l-128 177q-21 -19 -40.5 -42t-34.5 -46t-24 -45t-9 -40q0 -52 26.5 -76t75.5 -24zM189 504l52 -71q28 28 42.5 55t14.5 62q0 42 -13.5 58t-42.5 16q-18 0 -28 -5.5t-15.5 -14t-6.5 -18t-1 -17.5z" />
    <glyph glyph-name="quotesingle" unicode="'" horiz-adv-x="220" 
d="M73 700h74l-6 -231h-62z" />
    <glyph glyph-name="parenleft" unicode="(" horiz-adv-x="317" 
d="M84 436q0 53 9 102t27 91.5t45.5 76.5t64.5 56l27 -40q-46 -29 -77 -102t-31 -184v-333q0 -101 28.5 -173.5t79.5 -110.5l-27 -41q-67 43 -106.5 126t-39.5 199v333z" />
    <glyph glyph-name="parenright" unicode=")" horiz-adv-x="328" 
d="M233 110q0 -117 -39.5 -202.5t-106.5 -128.5l-27 37q51 37 79 113t28 181v321q0 111 -31 188.5t-77 105.5l28 37q38 -22 65.5 -57t45.5 -78.5t26.5 -93t8.5 -102.5v-321z" />
    <glyph glyph-name="asterisk" unicode="*" horiz-adv-x="367" 
d="M303 632l17 -52l-95 -33l62 -89l-45 -31l-58 84l-58 -84l-46 31l62 89l-95 33l18 53l91 -35v104h56v-104z" />
    <glyph glyph-name="plus" unicode="+" horiz-adv-x="486" 
d="M281 425h175v-70h-175v-219h-77v219h-174v70h174v201h77v-201z" />
    <glyph glyph-name="comma" unicode="," horiz-adv-x="187" 
d="M127 83v-26q0 -37 -5.5 -65.5t-15 -50t-22 -38t-26.5 -30.5l-37 26q17 23 27 50t10 70v64h69z" />
    <glyph glyph-name="hyphen" unicode="-" horiz-adv-x="296" 
d="M47 322h203v-70h-203v70z" />
    <glyph glyph-name="period" unicode="." horiz-adv-x="228" 
d="M64 107h99v-107h-99v107z" />
    <glyph glyph-name="slash" unicode="/" horiz-adv-x="327" 
d="M21 -85l222 765h69l-223 -765h-68z" />
    <glyph glyph-name="zero" unicode="0" horiz-adv-x="554" 
d="M277 690q46 0 83.5 -13t64.5 -37.5t41.5 -60.5t14.5 -81v-320q0 -45 -15 -80t-42 -59t-64.5 -36.5t-82.5 -12.5q-94 0 -149 47.5t-55 139.5v321q0 91 55 141.5t149 50.5zM405 498q0 59 -34 90.5t-94 31.5q-61 0 -94.5 -32t-33.5 -90v-321q0 -59 34 -88t94 -29t94 29
t34 89v320z" />
    <glyph glyph-name="one" unicode="1" horiz-adv-x="398" 
d="M189 610h-123v70h199v-680h-76v610z" />
    <glyph glyph-name="two" unicode="2" horiz-adv-x="465" 
d="M291 314q-37 -27 -65 -54t-46.5 -56.5t-28.5 -62t-10 -71.5h281v-70h-357v40q0 49 6.5 90t23.5 77t46.5 70t75.5 69q31 23 53.5 41.5t36.5 38t21 42t7 53.5q0 54 -28 78t-75 24q-21 0 -39 -7t-34 -18.5t-29.5 -25.5t-25.5 -28l-50 49q31 44 79 72t111 28
q84 0 125.5 -44.5t41.5 -116.5q0 -31 -3.5 -57.5t-16 -52t-36 -51.5t-64.5 -57z" />
    <glyph glyph-name="three" unicode="3" horiz-adv-x="500" 
d="M430 468q0 -27 -8.5 -45.5t-22 -31.5t-30 -22t-33.5 -17q40 -17 69.5 -44.5t29.5 -72.5v-101q0 -39 -15.5 -66.5t-41.5 -44.5t-60 -25t-71 -8q-38 0 -71 10.5t-58.5 29.5t-41.5 45.5t-20 57.5l64 19q2 -19 14.5 -36t30 -29.5t38.5 -19.5t41 -7q50 0 82.5 17.5t32.5 56.5
v101q0 21 -10 36.5t-26.5 26t-36.5 15.5t-40 6h-71v69h68q50 0 80.5 20.5t30.5 59.5v70q0 46 -30.5 64t-79.5 18q-24 0 -44.5 -8t-36.5 -21.5t-26 -31t-12 -35.5l-61 24q5 34 22 60.5t42.5 44.5t56.5 27.5t62 9.5q92 0 137.5 -41.5t45.5 -110.5v-70z" />
    <glyph glyph-name="four" unicode="4" horiz-adv-x="470" 
d="M357 271h94v-70h-94v-201h-77v201h-256v58l217 421h116v-409zM282 612h-5l-168 -341h171z" />
    <glyph glyph-name="five" unicode="5" horiz-adv-x="487" 
d="M245 412q88 0 135 -42t47 -117v-106q0 -42 -14.5 -71.5t-39.5 -48.5t-59 -28t-72 -9q-83 0 -130 43t-52 114l73 16q1 -20 9.5 -38.5t23.5 -33t35.5 -23t46.5 -8.5q56 0 80 21.5t24 65.5v106q0 25 -9 42t-24.5 27.5t-36 15t-43.5 4.5h-158l34 338h280v-70h-211l-22 -198
h83z" />
    <glyph glyph-name="six" unicode="6" horiz-adv-x="501" 
d="M267 437q86 0 128 -42.5t42 -117.5v-124q0 -40 -14.5 -70t-39 -50.5t-58 -30.5t-71.5 -10q-87 0 -134 44.5t-47 116.5v387q0 38 15 65.5t40 46.5t58 28t68 9q54 0 87 -20t59 -53l-46 -51q-17 23 -41 39t-59 16q-52 0 -79.5 -23.5t-27.5 -56.5v-166q26 36 55.5 49.5
t64.5 13.5zM362 270q0 48 -29 70.5t-74 22.5q-26 0 -47 -9t-35.5 -23.5t-22 -33.5t-7.5 -40v-104q0 -48 31 -70t76 -22q53 0 80.5 25t27.5 67v117z" />
    <glyph glyph-name="seven" unicode="7" horiz-adv-x="393" 
d="M8 680h360l-187 -680h-81l169 610h-261v70z" />
    <glyph glyph-name="eight" unicode="8" horiz-adv-x="509" 
d="M425 474q0 -21 -7 -39.5t-18.5 -34.5t-25.5 -27.5t-29 -18.5q40 -19 65.5 -53.5t25.5 -71.5v-87q0 -37 -14.5 -65.5t-39.5 -48t-58 -29t-70 -9.5q-90 0 -135.5 41t-45.5 113v85q0 21 7.5 40t20.5 35t29 29t34 21q-39 20 -60 51t-21 71v70q0 36 14 62.5t37.5 44t54.5 26
t65 8.5q82 0 126.5 -40t44.5 -109v-64v0zM361 214q0 48 -26 75t-73 27h-15q-54 -1 -77 -29.5t-23 -71.5v-69q0 -46 30 -66t77 -20q52 0 79.5 23t27.5 61v70zM158 474q0 -44 26 -65t65 -23h12q45 4 67 27t22 61v64q0 44 -28 61.5t-68 17.5q-48 0 -72 -22t-24 -57v-64v0z" />
    <glyph glyph-name="nine" unicode="9" horiz-adv-x="502" 
d="M246 703q87 0 134.5 -43.5t47.5 -111.5v-396q0 -40 -14 -70.5t-39 -50t-58 -29.5t-71 -10q-45 0 -91.5 19.5t-74.5 50.5l44 55q13 -11 28.5 -21.5t31.5 -18.5t32 -12.5t29 -4.5q53 0 80.5 23.5t27.5 68.5v142q-23 -27 -55 -39t-64 -12q-88 0 -129 45t-41 117v143
q0 38 14 67t38.5 48.5t58 29.5t71.5 10zM353 548q0 45 -31 65.5t-76 20.5q-54 0 -80.5 -25t-26.5 -61v-143q0 -48 30.5 -70t76.5 -22q53 0 80 31t27 74v130z" />
    <glyph glyph-name="colon" unicode=":" horiz-adv-x="263" 
d="M87 118h94v-118h-94v118zM87 490h94v-116h-94v116z" />
    <glyph glyph-name="semicolon" unicode=";" horiz-adv-x="354" 
d="M177 347h-71v113h71v-113zM176 83v-26q0 -37 -5.5 -65.5t-15 -50t-22 -38t-26.5 -30.5l-37 26q17 23 27 50t10 70v64h69z" />
    <glyph glyph-name="less" unicode="&#x3c;" horiz-adv-x="513" 
d="M432 -12l-385 253l378 274l27 -47l-300 -224l314 -205z" />
    <glyph glyph-name="equal" unicode="=" horiz-adv-x="536" 
d="M47 490h442v-62h-442v62zM47 276h442v-62h-442v62z" />
    <glyph glyph-name="greater" unicode="&#x3e;" horiz-adv-x="500" 
d="M453 249l-375 -267l-28 56l300 208l-293 212l29 53z" />
    <glyph glyph-name="question" unicode="?" horiz-adv-x="359" 
d="M176 690q70 0 103 -29t33 -98v-66q0 -27 -11.5 -52t-29.5 -44q-20 -21 -35 -37.5t-24.5 -34t-14 -37.5t-4.5 -47v-36h-73v84q0 18 4 33t12 28.5t20 26.5t27 29q17 20 34.5 41.5t19.5 46.5v51q0 38 -14 54.5t-52 16.5q-15 0 -29 -5.5t-27.5 -14t-25.5 -19t-22 -20.5
l-42 48q29 33 67.5 57t83.5 24zM112 108h99v-108h-99v108z" />
    <glyph glyph-name="at" unicode="@" horiz-adv-x="683" 
d="M362 711q73 0 124.5 -18.5t84 -52t47.5 -79.5t15 -100q0 -147 -32.5 -220t-109.5 -73q-39 0 -61.5 18t-27.5 46q-23 -38 -51 -57.5t-64 -19.5q-32 0 -52.5 7t-32 19.5t-16 29t-5.5 34.5q0 46 7.5 88t11.5 80q5 36 21 63.5t39 46t50 27.5t53 9q60 0 87.5 -22t27.5 -64
q0 -23 -2.5 -50t-7.5 -49l-10 -46t-6 -47q0 -30 11 -44.5t28 -14.5q23 0 39 12t25.5 39.5t13.5 72.5t4 111q0 55 -15.5 93t-43.5 62t-67 34.5t-85 10.5q-61 0 -105.5 -21t-74 -56.5t-45.5 -82.5t-21 -100q-4 -47 -6 -74t-3 -41.5t-1 -19v-6.5q0 -56 16.5 -96t46 -65.5
t69.5 -37.5t87 -12q40 0 80.5 11.5t75.5 34.5l25 -50q-47 -32 -93 -41t-88 -9q-73 0 -125 20t-86 55.5t-50 83.5t-17 103v8.5t1 20.5t2.5 43t5.5 76q6 79 32.5 137t67 96.5t93.5 57.5t113 19zM297 211q36 0 55 18.5t28.5 44.5t12.5 54t6 46q-1 -2 1 9t4 26t4 31t2 24
q-1 26 -16.5 33t-38.5 7q-24 0 -40 -9.5t-26.5 -25t-16.5 -36t-10 -42.5q-5 -29 -8 -61.5t-5 -71.5q1 -29 14.5 -38t33.5 -9z" />
    <glyph glyph-name="A" unicode="A" horiz-adv-x="525" 
d="M308 687l195 -687h-78l-59 205h-205l-60 -205h-79l201 687h85zM349 270l-84 321l-86 -321h170z" />
    <glyph glyph-name="B" unicode="B" horiz-adv-x="507" 
d="M431 476q0 -45 -19.5 -76.5t-51.5 -45.5q42 -14 66.5 -53t24.5 -84v-57q0 -37 -12.5 -66.5t-34 -50.5t-50 -32t-60.5 -11h-213v680h193q39 0 68.5 -12t49 -33t29.5 -49t10 -60v-50v0zM375 219q0 48 -28 73.5t-73 25.5h-117v-248h123q24 0 42 7.5t30 20.5t17.5 29t5.5 33
v59zM157 383h111q86 0 86 87v50q0 46 -24.5 68t-68.5 22h-104v-227z" />
    <glyph glyph-name="C" unicode="C" horiz-adv-x="487" 
d="M262 620q-33 0 -57.5 -9.5t-40.5 -26.5t-24 -40t-8 -50v-310q0 -67 35 -95.5t95 -28.5q49 0 81 16.5t58 45.5l46 -55q-38 -40 -84.5 -58.5t-100.5 -18.5q-105 0 -155.5 52.5t-50.5 141.5v310q0 48 15.5 84.5t43 61t65.5 37.5t82 13q67 0 112 -25.5t74 -69.5l-51 -51
q-22 33 -57 54.5t-78 21.5z" />
    <glyph glyph-name="D" unicode="D" horiz-adv-x="531" 
d="M258 680q104 0 160 -54t56 -147v-279q0 -54 -16.5 -92.5t-45.5 -62.5t-69 -35t-88 -11h-173v681h176zM400 479q0 35 -11.5 60t-31 41t-45 23t-54.5 7h-102v-541h98q70 0 108 34.5t38 96.5v279z" />
    <glyph glyph-name="E" unicode="E" horiz-adv-x="449" 
d="M156 313v-243h246v-70h-320v680h301v-70h-227v-229h191v-68h-191z" />
    <glyph glyph-name="F" unicode="F" horiz-adv-x="412" 
d="M382 610h-226v-223h190v-67h-190v-320h-74v680h300v-70z" />
    <glyph glyph-name="G" unicode="G" horiz-adv-x="542" 
d="M266 353h212v-284q-35 -34 -86.5 -56.5t-117.5 -22.5q-51 0 -91.5 14.5t-68.5 41t-43 63.5t-15 82v298q0 49 18 86.5t48 63t69.5 38.5t82.5 13q64 0 109.5 -25t74.5 -67l-49 -51q-26 34 -61.5 53.5t-73.5 19.5q-33 0 -59 -10t-45 -28t-29 -42t-10 -51v-298
q0 -34 11.5 -59t31 -41t45.5 -23.5t55 -7.5q51 0 78 10t51 30v188h-137v65z" />
    <glyph glyph-name="H" unicode="H" horiz-adv-x="608" 
d="M450 680h75v-680h-75v294h-281v-294h-74v680h74v-316h281v316z" />
    <glyph glyph-name="I" unicode="I" horiz-adv-x="294" 
d="M108 680h76v-680h-76v680z" />
    <glyph glyph-name="J" unicode="J" horiz-adv-x="432" 
d="M275 680h76v-548q0 -36 -13 -62.5t-35.5 -44t-53.5 -26.5t-66 -9q-69 0 -112 33t-50 102l69 19q5 -45 28 -64.5t66 -19.5q40 0 65.5 15.5t25.5 56.5v548z" />
    <glyph glyph-name="K" unicode="K" horiz-adv-x="531" 
d="M501 680l-258 -316l283 -364h-96l-236 303l-36 -47v-256h-76v680h76v-309l253 309h90z" />
    <glyph glyph-name="L" unicode="L" horiz-adv-x="430" 
d="M156 680v-610h267v-70h-341v680h74z" />
    <glyph glyph-name="M" unicode="M" horiz-adv-x="689" 
d="M176 680l168 -389l169 389h94v-680h-70v576l-170 -418h-43l-173 416v-574h-69v680h94z" />
    <glyph glyph-name="N" unicode="N" horiz-adv-x="615" 
d="M464 680h70v-680h-113l-270 584v-584h-69v680h107l275 -591v591z" />
    <glyph glyph-name="O" unicode="O" horiz-adv-x="567" 
d="M289 690q47 0 87 -14t70 -40.5t47 -63.5t17 -83v-298q0 -48 -17 -85t-46.5 -63t-70 -39.5t-87.5 -13.5h-12q-48 0 -89 13.5t-70 39t-45.5 63t-16.5 85.5v298q0 45 17 82.5t47 63.5t70 40.5t86 14.5h13v0zM434 488q0 29 -11.5 53.5t-31.5 42t-46 27t-56 9.5h-13
q-30 0 -56 -9.5t-45.5 -26.5t-31 -41t-11.5 -54v-298q0 -64 40.5 -97.5t104.5 -33.5h12q64 0 104.5 33t40.5 98v297z" />
    <glyph glyph-name="P" unicode="P" horiz-adv-x="478" 
d="M264 680q75 0 121 -42t46 -117v-101q0 -36 -12.5 -63t-35 -46t-53 -28.5t-65.5 -9.5h-108v-273h-76v680h183zM355 520q0 42 -24.5 66t-66.5 24h-107v-267h107q40 0 65.5 18t25.5 60v99z" />
    <glyph glyph-name="glyph57" horiz-adv-x="587" 
d="M460 23q15 -23 35.5 -32t49.5 -9v-61q-26 0 -46.5 2t-37.5 9t-32 19t-30 33l-19 26q-23 -10 -50.5 -13.5t-52.5 -3.5q-49 0 -89.5 12.5t-69.5 38t-45.5 64t-16.5 89.5v292q0 48 17.5 85t48.5 63t72.5 39.5t89.5 13.5q50 0 91.5 -12.5t71.5 -37.5t46.5 -63t16.5 -88v-281
q0 -44 -17.5 -88.5t-50.5 -69.5zM277 63q15 0 33.5 3t32.5 11l-75 115l52 38l77 -120q20 24 28.5 51t8.5 61v268q0 68 -41 99t-109 31q-69 0 -110.5 -31.5t-41.5 -98.5v-281q0 -69 38 -107.5t107 -38.5z" />
    <glyph glyph-name="R" unicode="R" horiz-adv-x="516" 
d="M462 446q0 -65 -33.5 -98t-89.5 -46l137 -302h-80l-133 296h-105v-296h-76v680h214q77 0 121.5 -39t44.5 -121v-74v0zM158 366h137q42 0 66.5 19t24.5 62v74q0 44 -23.5 66.5t-67.5 22.5h-137v-244z" />
    <glyph glyph-name="S" unicode="S" horiz-adv-x="481" 
d="M303 364q21 -16 46 -32.5t46.5 -39t36 -53t14.5 -75.5q0 -44 -15 -76.5t-42 -54t-63.5 -32t-80.5 -10.5q-69 0 -125.5 30t-85.5 93l61 44q20 -46 58.5 -71.5t89.5 -25.5q60 0 93.5 22t33.5 82q0 30 -17.5 52.5t-41.5 40.5t-49.5 32t-41.5 26q-20 15 -47.5 33t-52 42
t-41.5 55t-17 73q0 86 53.5 128.5t140.5 42.5q54 0 102.5 -26t79.5 -68l-49 -56q-11 15 -26.5 29t-33.5 25.5t-38.5 18.5t-40.5 7q-55 0 -83.5 -23t-28.5 -77q0 -27 19 -50t45.5 -42.5t54.5 -35.5t46 -28z" />
    <glyph glyph-name="T" unicode="T" horiz-adv-x="456" 
d="M12 610v70h432v-70h-179v-610h-76v610h-177z" />
    <glyph glyph-name="U" unicode="U" horiz-adv-x="602" 
d="M444 680h76v-485q0 -53 -17 -91.5t-46 -64t-69 -37.5t-86 -12q-108 0 -164 55t-56 150v485h76v-485q0 -36 11.5 -62t31 -42t45.5 -23.5t56 -7.5q61 0 101.5 34t40.5 101v485z" />
    <glyph glyph-name="V" unicode="V" horiz-adv-x="523" 
d="M97 680l162 -563l166 563h77l-201 -680h-84l-196 680h76z" />
    <glyph glyph-name="W" unicode="W" horiz-adv-x="735" 
d="M403 680l119 -542l106 542h78l-138 -680h-87l-116 528l-117 -528h-85l-142 680h77l111 -541l119 541h75z" />
    <glyph glyph-name="X" unicode="X" horiz-adv-x="546" 
d="M137 680l141 -266l146 266h87l-190 -339l189 -341h-86l-146 268l-151 -268h-86l193 341l-183 339h86z" />
    <glyph glyph-name="Y" unicode="Y" horiz-adv-x="537" 
d="M224 273l-203 407h84l158 -324l161 324h83l-207 -407v-273h-76v273z" />
    <glyph glyph-name="Z" unicode="Z" horiz-adv-x="502" 
d="M448 680v-40l-298 -570h303v-70h-406v35l305 575h-295v70h391z" />
    <glyph glyph-name="bracketleft" unicode="[" horiz-adv-x="257" 
d="M210 680v-59h-61v-726h58v-59h-127v844h130z" />
    <glyph glyph-name="backslash" unicode="\" horiz-adv-x="347" 
d="M30 680h70l217 -680h-70z" />
    <glyph glyph-name="bracketright" unicode="]" horiz-adv-x="255" 
d="M175 680v-838h-128v59h58v717h-57v62h127z" />
    <glyph glyph-name="asciicircum" unicode="^" horiz-adv-x="363" 
d="M106 415l-59 14l138 263l131 -262l-57 -15l-75 143z" />
    <glyph glyph-name="underscore" unicode="_" horiz-adv-x="469" 
d="M47 -30h375v-62h-375v62z" />
    <glyph glyph-name="a" unicode="a" horiz-adv-x="438" 
d="M225 500q78 0 113.5 -36.5t35.5 -114.5v-349h-62l-5 66q-19 -32 -49.5 -53.5t-71.5 -21.5q-64 0 -101 31.5t-37 95.5v126l252 53v52q0 47 -17.5 65t-63.5 18q-13 0 -30.5 -4.5t-36 -12t-35.5 -16.5t-29 -17l-28 59q14 10 34.5 20.5t43 19t45.5 14t42 5.5zM299 238
l-175 -37v-81q0 -34 22 -48t56 -14q20 0 37.5 7.5t31 20.5t21 30.5t7.5 38.5v83z" />
    <glyph glyph-name="b" unicode="b" horiz-adv-x="477" 
d="M273 500q78 0 117.5 -41.5t39.5 -119.5v-188q0 -78 -40.5 -119.5t-117.5 -41.5q-41 0 -73.5 15.5t-53.5 52.5l-4 -58h-68v720h77v-286q21 30 53 48t70 18zM354 336q0 48 -26.5 70.5t-74.5 22.5q-22 0 -41 -9t-33 -24.5t-21.5 -36t-7.5 -42.5v-146q0 -49 28 -80t77 -31
q45 0 72 23t27 68v185z" />
    <glyph glyph-name="c" unicode="c" horiz-adv-x="391" 
d="M213 430q-42 0 -66.5 -26t-24.5 -68v-184q0 -45 25 -68.5t70 -23.5q26 0 51.5 10.5t42.5 32.5l47 -51q-28 -32 -65.5 -47t-77.5 -15q-77 0 -122.5 42.5t-45.5 119.5v184q0 36 12 66t34 52t52.5 34t67.5 12q93 0 149 -76l-51 -50q-18 25 -43.5 40.5t-54.5 15.5z" />
    <glyph glyph-name="d" unicode="d" horiz-adv-x="465" 
d="M323 720h77v-720h-65l-8 46q-22 -28 -53 -41.5t-63 -13.5q-78 0 -121 40.5t-43 118.5v191q0 77 43 118t121 41q36 0 63 -13t49 -45v278zM323 317q0 47 -28 80t-75 33q-45 0 -70.5 -22t-25.5 -67v-190q0 -48 23.5 -69t71.5 -21q45 0 74.5 30t29.5 75v151z" />
    <glyph glyph-name="e" unicode="e" horiz-adv-x="429" 
d="M237 60q30 0 56.5 10t55.5 37l42 -53q-34 -35 -72.5 -49.5t-84.5 -14.5q-87 0 -137 44.5t-50 131.5v170q0 38 13 68.5t36 51.5t55 32.5t70 11.5q36 0 66 -11.5t51.5 -33t33.5 -52t12 -67.5v-74l-262 -47v-49q0 -51 32 -78.5t83 -27.5zM221 430q-42 0 -70.5 -25.5
t-28.5 -68.5v-65l187 34l-2 43q-6 40 -25.5 61t-60.5 21z" />
    <glyph glyph-name="f" unicode="f" horiz-adv-x="263" 
d="M90 598q0 36 10.5 62t29 42.5t43.5 24t54 7.5q23 0 47 -6.5t41 -13.5l-17 -60q-14 4 -33 9t-33 5q-39 0 -53 -19.5t-14 -61.5v-97h98v-58h-98v-432h-75v432h-82v58h82v108z" />
    <glyph glyph-name="g" unicode="g" horiz-adv-x="448" 
d="M419 -12v-91q0 -36 -12 -60.5t-33.5 -39.5t-51 -21.5t-65.5 -6.5h-54q-72 0 -116.5 33t-44.5 105q0 83 79 111q-32 18 -41.5 42.5t-9.5 47.5q0 26 11 43t36 32q-29 24 -44.5 47.5t-15.5 62.5v65q0 35 12.5 62.5t35 46.5t53 29t66.5 10q26 0 48 -6.5t46 -19.5l96 41
l18 -60l-68 -24q14 -21 20 -40.5t6 -42.5v-63q0 -77 -45.5 -109.5t-121.5 -32.5q-18 0 -32 1.5t-28 6.5q-17 -4 -26 -15.5t-9 -26.5q0 -26 17 -40t37 -19zM129 288q0 -21 8 -35.5t21.5 -24t30.5 -14t36 -4.5q41 0 67.5 17.5t26.5 60.5v68q1 45 -24.5 64t-70.5 19
q-44 0 -69.5 -20.5t-25.5 -62.5v-68zM251 -167q23 0 40.5 2.5t29.5 9.5t18 20.5t5 36.5v49l-164 42q-35 -5 -50 -29t-15 -58q0 -40 30 -56.5t71 -16.5h35v0z" />
    <glyph glyph-name="h" unicode="h" horiz-adv-x="488" 
d="M283 501q77 0 109 -42t32 -119v-340h-76v340q0 44 -19 67.5t-63 23.5q-23 0 -44.5 -11.5t-37.5 -30.5t-25.5 -42t-9.5 -46v-301h-77v720h77v-299q20 33 57 56.5t77 23.5z" />
    <glyph glyph-name="i" unicode="i" horiz-adv-x="246" 
d="M87 490h76v-490h-76v490zM84 680h80v-88h-80v88z" />
    <glyph glyph-name="j" unicode="j" horiz-adv-x="247" 
d="M84 490h75v-458q0 -61 -9.5 -101.5t-31 -68.5t-55 -47.5t-81.5 -38.5l-26 55q45 25 70.5 44.5t38 40.5t16 49t3.5 72v453zM83 680h83v-88h-83v88z" />
    <glyph glyph-name="k" unicode="k" horiz-adv-x="403" 
d="M230 265l170 -265h-88l-149 230h-14v-230h-77v710h77v-413h16l134 193h86z" />
    <glyph glyph-name="l" unicode="l" horiz-adv-x="244" 
d="M84 710h76v-710h-76v710z" />
    <glyph glyph-name="m" unicode="m" horiz-adv-x="719" 
d="M517 500q75 0 106.5 -33.5t31.5 -108.5v-358h-76v348q0 42 -16.5 62t-59.5 20q-22 0 -41 -10t-32 -27t-20.5 -39t-7.5 -46v-308h-77v339q0 43 -15 68t-58 25q-22 0 -41 -13t-32.5 -32.5t-21 -43.5t-7.5 -46v-297h-77v490h68l4 -70q20 36 50 58t73 22q48 0 76.5 -17
t44.5 -62q17 36 51.5 57.5t76.5 21.5z" />
    <glyph glyph-name="n" unicode="n" horiz-adv-x="489" 
d="M279 501q78 0 111.5 -41.5t33.5 -119.5v-340h-76v331q0 46 -18 73.5t-64 27.5q-23 0 -44.5 -11.5t-37.5 -30.5t-25.5 -42t-9.5 -46v-302h-76v490h70l5 -65q25 38 54 57t77 19z" />
    <glyph glyph-name="o" unicode="o" horiz-adv-x="446" 
d="M223 500q38 0 70 -11t55.5 -31.5t37 -50.5t13.5 -68v-187q0 -39 -13 -69t-36 -50.5t-55.5 -31.5t-70.5 -11q-78 0 -127.5 42t-49.5 120v187q0 38 13 68t36.5 50.5t56 31.5t70.5 11zM323 339q0 48 -26 69.5t-74 21.5q-46 0 -73 -23t-27 -68v-186q0 -49 26 -71t75 -22
q46 0 72.5 22.5t26.5 69.5v187z" />
    <glyph glyph-name="p" unicode="p" horiz-adv-x="474" 
d="M272 500q79 0 116.5 -40t37.5 -121v-185q0 -79 -39.5 -121.5t-116.5 -42.5q-37 0 -69.5 13.5t-51.5 46.5v-270h-77v710h63l7 -64q20 35 54.5 54.5t75.5 19.5zM350 337q0 47 -26 70.5t-73 23.5q-45 0 -74 -30t-29 -76v-158q0 -48 29 -78t75 -30t72 23.5t26 71.5v183z" />
    <glyph glyph-name="q" unicode="q" horiz-adv-x="446" 
d="M207 499q43 0 76.5 -20.5t47.5 -50.5l7 62h61v-710h-75v280q-21 -29 -51.5 -48.5t-65.5 -19.5q-81 0 -120.5 44.5t-39.5 116.5v191q0 81 44 118t116 37zM123 162q0 -53 26.5 -77t71.5 -24q49 0 75.5 30t26.5 75v159q0 47 -29.5 76t-71.5 29q-99 0 -99 -88v-180z" />
    <glyph glyph-name="r" unicode="r" horiz-adv-x="299" 
d="M243 499q18 0 30 -2.5t23 -6.5l-16 -76q-24 13 -46 13q-34 0 -58 -37t-24 -99v-291h-75v490h61l6 -73q20 47 47 64.5t52 17.5z" />
    <glyph glyph-name="s" unicode="s" horiz-adv-x="380" 
d="M229 277q28 -16 50.5 -29t38 -28.5t23.5 -36t8 -50.5q0 -74 -45 -108.5t-114 -34.5q-53 0 -91 20.5t-67 58.5l46 50q27 -37 57 -50t56 -13q40 0 62 13.5t22 54.5q0 17 -7.5 29t-20.5 21.5t-31.5 19.5t-39.5 23q-27 16 -49.5 30t-38.5 30.5t-25 37.5t-9 51q0 62 39.5 98
t109.5 36q48 0 82.5 -20.5t54.5 -43.5l-42 -51q-17 18 -41.5 32.5t-50.5 14.5q-36 0 -56.5 -15.5t-20.5 -50.5q0 -17 10 -29.5t25 -22.5t32.5 -19t32.5 -18z" />
    <glyph glyph-name="t" unicode="t" horiz-adv-x="324" 
d="M212 64q20 0 38.5 4.5t44.5 16.5l17 -59q-23 -12 -51 -22t-55 -10q-63 0 -88.5 30.5t-25.5 92.5v314h-76v59h77v147h75v-147h107v-59h-107v-307q0 -29 13 -44.5t31 -15.5z" />
    <glyph glyph-name="u" unicode="u" horiz-adv-x="457" 
d="M317 490h76v-338q0 -78 -42 -120t-119 -42q-78 0 -119 42t-41 120v338h77v-338q0 -46 18.5 -69t64.5 -23q45 0 65 23t20 69v338z" />
    <glyph glyph-name="v" unicode="v" horiz-adv-x="431" 
d="M216 107l116 383h78l-159 -490h-70l-160 490h79z" />
    <glyph glyph-name="w" unicode="w" horiz-adv-x="579" 
d="M409 96l72 394h77l-110 -491h-78l-79 371l-79 -371h-80l-111 491h78l73 -396l80 396h75z" />
    <glyph glyph-name="x" unicode="x" horiz-adv-x="387" 
d="M116 490l79 -176l78 176h88l-124 -235l130 -255h-86l-86 193l-87 -193h-88l131 255l-121 235h86z" />
    <glyph glyph-name="y" unicode="y" horiz-adv-x="394" 
d="M160 -14l-141 504h78l102 -412l101 412h79l-161 -560q-12 -42 -30.5 -71.5t-42.5 -47.5t-54 -26t-66 -9l-6 62q49 2 81.5 30t47.5 75z" />
    <glyph glyph-name="z" unicode="z" horiz-adv-x="394" 
d="M337 490v-45l-207 -379h222v-66h-310v50l209 375h-206v65h292z" />
    <glyph glyph-name="braceleft" unicode="{" horiz-adv-x="299" 
d="M248 700q-30 -21 -49 -43t-29.5 -45t-15 -46t-4.5 -46l22 -178l-29 -46l31 -39l-24 -206q3 -57 25.5 -102t76.5 -81l-24 -49q-44 31 -72 59.5t-43.5 57t-21.5 58t-6 62.5l25 193l-37 45l38 54l-26 170q0 39 8.5 70t26 58t44 51.5t62.5 49.5z" />
    <glyph glyph-name="bar" unicode="|" horiz-adv-x="225" 
d="M82 680h61v-827h-61v827z" />
    <glyph glyph-name="braceright" unicode="}" horiz-adv-x="297" 
d="M99 748q35 -25 61 -49.5t43.5 -51.5t26 -58.5t8.5 -70.5l-26 -170l38 -54l-37 -45l25 -193q0 -34 -5.5 -63.5t-21.5 -58t-43 -57t-71 -59.5l-24 50q52 36 74.5 80t25.5 103l-23 206l29 39l-28 46l22 178q0 24 -4.5 47.5t-15 46t-29 44t-47.5 42.5z" />
    <glyph glyph-name="asciitilde" unicode="~" horiz-adv-x="365" 
d="M129 629q-14 0 -23.5 -11.5t-15.5 -27.5l-38 30q19 37 36 53.5t44 16.5q16 0 31.5 -7t29 -15.5t25 -15t20.5 -6.5q14 1 20.5 12t13.5 25l41 -26q-11 -30 -29 -51t-44 -21q-20 0 -35.5 7t-28 15t-24 15t-23.5 7z" />
    <glyph glyph-name="Euro" unicode="&#x20ac;" horiz-adv-x="569" 
d="M343 631q-60 0 -86 -28.5t-26 -88.5v-62h196v-52h-196v-87h196v-52h-195v-81q0 -57 29 -87t86 -30q35 0 64.5 15.5t57.5 42.5l43 -55q-70 -73 -165 -73q-94 0 -142.5 47t-48.5 143v78h-120v52h120v87h-120v52h120v76q0 88 49.5 130.5t137.5 42.5q49 0 88.5 -18t74.5 -53
l-39 -58q-26 26 -57.5 42.5t-66.5 16.5z" />
    <glyph glyph-name="florin" unicode="&#x192;" horiz-adv-x="501" 
d="M357 759q40 0 76 -15.5t56 -40.5l-35 -49q-20 19 -46.5 30t-46.5 11q-42 0 -64 -22t-27 -60l-15 -120h89l-3 -58h-95q-4 -39 -10.5 -91.5t-13.5 -107.5t-13 -106.5t-10 -87.5q-5 -42 -24 -71t-45.5 -47t-57.5 -26.5t-60 -8.5v62q32 0 53 9t34.5 23t20 32t8.5 35l46 385
h-84l2 58h88l18 138q4 36 19.5 60.5t38 39.5t49 21.5t52.5 6.5z" />
    <glyph glyph-name="quotedblbase" unicode="&#x201e;" horiz-adv-x="379" 
d="M182 84v-26q0 -37 -5.5 -65.5t-15 -50t-22 -38t-26.5 -30.5l-37 26q17 23 27 50t10 70v64h69zM344 85v-26q0 -37 -5.5 -65.5t-15 -50t-22 -38t-26.5 -30.5l-37 26q17 23 27 50t10 70v64h69z" />
    <glyph glyph-name="ellipsis" unicode="&#x2026;" horiz-adv-x="647" 
d="M275 109h97v-109h-97v109zM476 109h98v-109h-98v109zM73 109h96v-109h-96v109z" />
    <glyph glyph-name="dagger" unicode="&#x2020;" horiz-adv-x="436" 
d="M260 490h127v-65h-127v-427h-76v427h-131v65h131v190h76v-190z" />
    <glyph glyph-name="daggerdbl" unicode="&#x2021;" horiz-adv-x="457" 
d="M268 490h151v-65h-151v-360h151v-65h-151v-187h-76v187h-154v65h154v360h-154v65h154v189h76v-189z" />
    <glyph glyph-name="perthousand" unicode="&#x2030;" horiz-adv-x="907" 
d="M454 700l67 4l-347 -703l-72 -3zM290 501q0 -25 -9 -44t-24.5 -31.5t-36 -18.5t-42.5 -6q-51 0 -82.5 24t-31.5 70v115q0 25 9.5 43.5t25 31t36.5 18.5t43 6q51 0 81.5 -27.5t30.5 -71.5v-109zM462 301q51 0 81.5 -28t30.5 -72v-109q0 -24 -9.5 -42.5t-25 -31t-36 -19
t-41.5 -6.5q-53 0 -84 26.5t-31 73.5v109q0 25 9.5 43.5t25 31t36.5 18.5t44 6zM130 505q0 -17 10.5 -30t37.5 -13q22 0 35 12t13 31v103q0 19 -10.5 30t-37.5 11q-22 0 -35 -12.5t-13 -30.5v-101zM509 198q0 20 -13.5 31t-33.5 11q-23 0 -36.5 -12.5t-13.5 -29.5v-103
q0 -19 11 -30.5t39 -11.5q22 0 34.5 12t12.5 32v101zM732 301q51 0 81 -28t30 -72v-109q0 -25 -9 -43.5t-24.5 -31t-35.5 -18.5t-42 -6q-52 0 -83.5 27t-31.5 73v109q0 25 9.5 43.5t25 31t36.5 18.5t44 6zM779 197q0 17 -10.5 30t-36.5 13q-23 0 -36.5 -12.5t-13.5 -31.5
v-101q0 -17 11.5 -29.5t38.5 -12.5q22 0 34.5 12t12.5 32v100z" />
    <glyph glyph-name="guilsinglleft" unicode="&#x2039;" horiz-adv-x="260" 
d="M171 -4l-129 174l128 178l43 -35l-89 -142l88 -137z" />
    <glyph glyph-name="OE" unicode="&#x152;" horiz-adv-x="758" 
d="M464 317v-247h247v-70h-434q-104 0 -162.5 54t-58.5 148v277q0 50 18 87.5t48.5 62.5t70.5 38t83 13h415v-70h-227v-225h191v-68h-191zM132 202q1 -37 12.5 -62.5t31.5 -41t46 -22t55 -6.5h111v540h-112q-31 0 -57 -10.5t-45.5 -29t-30.5 -44t-11 -55.5v-269v0z" />
    <glyph glyph-name="quoteleft" unicode="&#x2018;" horiz-adv-x="131" 
d="M30 479v28q0 67 14 111t42 72l40 -25q-16 -23 -21.5 -53.5t-5.5 -67.5v-65h-69z" />
    <glyph glyph-name="quoteright" unicode="&#x2019;" horiz-adv-x="136" 
d="M111 676v-26q0 -37 -5.5 -65.5t-15 -50t-22 -38t-26.5 -30.5l-37 26q17 23 27 50t10 70v64h69z" />
    <glyph glyph-name="quotedblleft" unicode="&#x201c;" horiz-adv-x="278" 
d="M171 479v28q0 67 14 111t42 72l40 -25q-16 -23 -21.5 -53.5t-5.5 -67.5v-65h-69zM30 479v28q0 67 14 111t42 72l40 -25q-16 -23 -21.5 -53.5t-5.5 -67.5v-65h-69z" />
    <glyph glyph-name="quotedblright" unicode="&#x201d;" horiz-adv-x="265" 
d="M111 679v-26q0 -37 -5.5 -65.5t-15 -50t-22 -38t-26.5 -30.5l-37 26q17 23 27 50t10 70v64h69zM240 679v-26q0 -37 -5.5 -65.5t-15 -50t-22 -38t-26.5 -30.5l-37 26q17 23 27 50t10 70v64h69z" />
    <glyph glyph-name="bullet" unicode="&#x2022;" horiz-adv-x="316" 
d="M73 352h170v-184h-170v184z" />
    <glyph glyph-name="endash" unicode="&#x2013;" 
d="M2 324h468v-62h-468v62z" />
    <glyph glyph-name="emdash" unicode="&#x2014;" horiz-adv-x="649" 
d="M3 324h642v-62h-642v62z" />
    <glyph glyph-name="trademark" unicode="&#x2122;" horiz-adv-x="474" 
d="M269 700l47 -85l42 85h46v-210h-47v111l-29 -59h-28l-30 61v-113h-47v210h46zM36 700h165v-41h-60v-170h-47v170h-58v41z" />
    <glyph glyph-name="guilsinglright" unicode="&#x203a;" horiz-adv-x="260" 
d="M136 169l-89 144l43 35l127 -178l-128 -174l-42 38z" />
    <glyph glyph-name="oe" unicode="&#x153;" horiz-adv-x="710" 
d="M511 61q34 0 64 16.5t49 37.5l39 -53q-31 -34 -74 -50.5t-81 -16.5q-53 0 -92 18.5t-64 58.5q-23 -41 -59.5 -60t-78.5 -19q-82 0 -124.5 44t-42.5 118v188q0 41 12.5 71t34.5 50t52.5 29.5t66.5 9.5q48 0 84.5 -21t56.5 -53q22 36 58 55t83 19q35 0 65 -11t52 -31.5
t34 -50t12 -67.5v-82l-262 -46v-40q0 -27 10 -48t26.5 -35.5t37 -22.5t41.5 -8zM221 63q47 0 72.5 29.5t26.5 70.5v175q-1 47 -30.5 72t-68.5 25q-49 0 -74 -25t-25 -67v-188q0 -50 29 -71t70 -21zM495 435q-22 0 -40.5 -8t-31.5 -21t-20 -30.5t-7 -37.5v-63l186 34l1 38
q0 45 -26 66.5t-62 21.5z" />
    <glyph glyph-name="caron" unicode="&#x2c7;" horiz-adv-x="284" 
d="M144 486l-94 112l35 31l59 -66l59 65l31 -30z" />
    <glyph glyph-name="grave" unicode="`" horiz-adv-x="234" 
d="M104 717l80 -148l-43 -36l-91 142z" />
    <glyph glyph-name="circumflex" unicode="&#x2c6;" horiz-adv-x="315" 
d="M158 703l107 -91l-29 -44l-78 62l-78 -61l-30 45z" />
    <glyph glyph-name="tilde" unicode="&#x2dc;" horiz-adv-x="361" 
d="M127 629q-14 0 -23.5 -11.5t-15.5 -27.5l-38 30q19 37 36 53.5t44 16.5q16 0 31.5 -7t29 -15.5t25 -15t20.5 -6.5q14 1 20.5 12t13.5 25l41 -26q-11 -30 -29 -51t-44 -21q-20 0 -35.5 7t-28 15t-24 15t-23.5 7z" />
    <glyph glyph-name="acute" unicode="&#xb4;" horiz-adv-x="234" 
d="M132 711l52 -38l-92 -140l-42 33z" />
    <glyph glyph-name="dieresis" unicode="&#xa8;" horiz-adv-x="322" 
d="M126 584h-76v83h76v-83zM272 584h-75v83h75v-83z" />
    <glyph glyph-name="breve" unicode="&#x2d8;" horiz-adv-x="313" 
d="M156 595q-43 0 -68 22.5t-38 59.5l49 17q10 -31 23.5 -42t33.5 -11q25 0 37 15t20 38l50 -17q-17 -47 -45 -64.5t-62 -17.5z" />
    <glyph glyph-name="dotaccent" unicode="&#x2d9;" horiz-adv-x="162" 
d="M50 702h62v-70h-62v70z" />
    <glyph glyph-name="macron" unicode="&#xaf;" horiz-adv-x="400" 
d="M350 637h-300v48h300v-48z" />
    <glyph glyph-name="cedilla" unicode="&#xb8;" horiz-adv-x="224" 
d="M126 0l-13 -56q7 -3 17.5 -9t20 -17t16.5 -27.5t7 -40.5q0 -44 -29 -69t-75 -42l-20 44q20 11 38 24t18 39q0 22 -6 34.5t-14.5 19t-18 8t-16.5 3.5l16 89h59z" />
    <glyph glyph-name="hungarumlaut" unicode="&#x2dd;" horiz-adv-x="443" 
d="M251 696l-167 -155l-34 40l165 161zM393 691l-167 -155l-35 40l165 161z" />
    <glyph glyph-name="ogonek" unicode="&#x2db;" horiz-adv-x="249" 
d="M163 0l14 -86q-5 -2 -16.5 -7t-23 -15.5t-21 -26t-10.5 -38.5v-7t1 -7h92v-49h-147q-2 8 -2 17v17q2 38 11.5 64t22.5 42.5t26.5 26t22.5 14.5l-8 55h38z" />
    <glyph glyph-name="section" unicode="&#xa7;" horiz-adv-x="495" 
d="M296 356q70 -35 112.5 -79.5t42.5 -105.5q0 -41 -16.5 -74.5t-52.5 -53.5q18 -25 24.5 -57.5t6.5 -53.5q0 -45 -18 -76t-44 -50.5t-56.5 -28t-54.5 -8.5q-29 0 -55 8.5t-47 22.5t-37 32.5t-24 38.5l47 45q9 -20 23 -35t30.5 -25.5t34 -16t33.5 -5.5q26 0 44 9t29.5 24
t17 34t5.5 39q0 36 -11.5 60.5t-30 42t-42 30.5t-47.5 25q-36 17 -64.5 35.5t-49 40.5t-31.5 50t-11 65q0 25 5.5 42.5t14.5 30t20.5 22t22.5 18.5q-17 29 -21 59.5t-4 54.5q0 42 14 74.5t37.5 54.5t53.5 33.5t63 11.5q31 0 56.5 -8.5t45.5 -22t34 -31.5t22 -36l-46 -41
q-24 45 -53 61t-60 16q-24 0 -41.5 -9t-29 -24.5t-16.5 -36t-5 -42.5q0 -39 12.5 -65t31.5 -44t42 -29.5zM376 163q0 24 -8.5 43.5t-24.5 35.5t-38 30t-48 28q-33 17 -53.5 28.5t-41.5 30.5q-21 -11 -31.5 -29.5t-10.5 -41.5q0 -39 29.5 -68t76.5 -49q33 -14 64.5 -34
t49.5 -36q21 6 28.5 25t7.5 37z" />
    <glyph glyph-name="exclamdown" unicode="&#xa1;" horiz-adv-x="241" 
d="M91 -197l10 464h68l11 -464h-89zM178 401h-84v89h84v-89z" />
    <glyph glyph-name="cent" unicode="&#xa2;" horiz-adv-x="418" 
d="M227 431q-48 0 -76.5 -26.5t-28.5 -75.5v-170q0 -54 27 -78t78 -24q57 0 97 44l41 -52q-26 -31 -56.5 -45.5t-71.5 -16.5h-18l-19 -119l-65 12l19 118q-57 17 -82 58.5t-25 102.5v170q0 38 11.5 68.5t32.5 52.5t51 34t66 12h5.5t8.5 -1l18 138l65 -10l-17 -130
q29 -11 48 -28.5t35 -40.5l-55 -50q-18 24 -38 40.5t-51 16.5z" />
    <glyph glyph-name="sterling" unicode="&#xa3;" horiz-adv-x="473" 
d="M247 203q0 -51 -15 -87t-35 -46h229v-70h-368v58q41 2 64 19.5t33.5 39.5t12.5 44.5t2 35.5l-6 100h-117v61h112l-7 123q0 57 18 96.5t50 63.5t75 34.5t94 10.5v-69q-88 0 -124.5 -40.5t-35.5 -112.5l7 -106h140v-61h-135q1 -18 2 -35t2 -30.5t1.5 -21.5t0.5 -7z" />
    <glyph glyph-name="yen" unicode="&#xa5;" horiz-adv-x="540" 
d="M65 336h157l-201 344h84l164 -282l168 282h83l-204 -344h163v-51h-173v-76h173v-49h-173v-160h-75v160h-165v49h165v76h-166v51z" />
    <glyph glyph-name="brokenbar" unicode="&#xa6;" horiz-adv-x="159" 
d="M47 219h65v-329h-65v329zM47 702h65v-329h-65v329z" />
    <glyph glyph-name="copyright" unicode="&#xa9;" horiz-adv-x="679" 
d="M47 349q0 75 17.5 139.5t54 112.5t91.5 75t130 27q74 0 128.5 -27.5t91 -75.5t54.5 -112.5t18 -138.5q0 -75 -18 -139t-54 -111t-91 -73.5t-129 -26.5q-73 0 -128 27t-92 74.5t-55 111.5t-18 137zM103 349q0 -62 14 -116.5t43 -94.5t73.5 -63t106.5 -23q61 0 105.5 23.5
t74 64t43.5 94.5t14 115q0 62 -13.5 116.5t-42.5 95.5t-73.5 64.5t-106.5 23.5q-61 0 -106 -24t-74.5 -65t-43.5 -95.5t-14 -115.5zM344 465q-42 0 -64 -21.5t-22 -65.5v-73q0 -46 22.5 -67t67.5 -20q27 0 49 11t42 32l36 -45q-26 -29 -59 -45t-70 -16q-75 0 -116 36.5
t-41 113.5v73q0 74 41.5 112t113.5 38q45 0 74.5 -17.5t55.5 -54.5l-44 -39q-19 24 -38 36t-48 12z" />
    <glyph glyph-name="ordfeminine" unicode="&#xaa;" horiz-adv-x="309" 
d="M152 689q30 0 50.5 -5t33 -17.5t18 -33.5t5.5 -53v-200h-49l-5 46q-10 -22 -28.5 -35t-36.5 -13q-27 0 -45 8.5t-28.5 22t-15 31.5t-4.5 37v57l149 27v28q0 30 -12 38.5t-33 8.5q-17 0 -36.5 -8.5t-29.5 -14.5l-21 47q18 11 42.5 19.5t45.5 9.5zM193 516l-84 -14v-37
q0 -14 11.5 -23.5t26.5 -9.5q18 0 32 10t14 25v49z" />
    <glyph glyph-name="guillemotleft" unicode="&#xab;" horiz-adv-x="402" 
d="M317 -11l-127 174l126 178l40 -35l-89 -142l88 -137zM175 -11l-128 174l127 178l39 -35l-89 -142l88 -137z" />
    <glyph glyph-name="logicalnot" unicode="&#xac;" horiz-adv-x="392" 
d="M47 332h298v-157h-62v94h-236v63z" />
    <glyph glyph-name="minus" unicode="&#x2212;" horiz-adv-x="457" 
d="M410 371v-69h-363v69h363z" />
    <glyph glyph-name="registered" unicode="&#xae;" horiz-adv-x="679" 
d="M47 349q0 75 18 139t54 111.5t91 74.5t130 27q73 0 128 -27.5t91.5 -75.5t54.5 -112t18 -137q0 -74 -18 -138t-54 -111t-91 -74t-129 -27q-73 0 -128 27.5t-91.5 74.5t-55 111t-18.5 137zM103 349q0 -62 14 -116t43 -94.5t73.5 -63.5t106.5 -23q61 0 105.5 23.5t74 64
t43.5 94.5t14 115q0 62 -13.5 116t-42.5 94.5t-73.5 64t-106.5 23.5q-61 0 -106 -24t-74 -64.5t-43.5 -94.5t-14.5 -115zM469 405q0 -36 -20 -58t-52 -31l80 -158h-69l-77 151h-42v-151h-62v381h139q48 0 75.5 -24t27.5 -73v-37v0zM288 358l82 3q20 2 28 14t8 33l-2 36
q-3 41 -44 41h-72v-127z" />
    <glyph glyph-name="degree" unicode="&#xb0;" horiz-adv-x="328" 
d="M160 690q55 0 88 -32t33 -80v-29q0 -27 -9.5 -47.5t-25.5 -35t-37.5 -22t-45.5 -7.5q-54 0 -85 32t-31 80v29q0 26 9 46.5t24 35t35.5 22.5t44.5 8zM216 580q0 26 -14.5 40.5t-38.5 14.5q-26 0 -38.5 -16t-12.5 -39v-33q-1 -27 14 -40.5t38 -13.5q26 0 39 15.5t13 38.5
v33z" />
    <glyph glyph-name="plusminus" unicode="&#xb1;" horiz-adv-x="472" 
d="M268 372h146v-66h-146v-177h-72v177h-142v66h142v165h72v-165zM47 62h378v-62h-378v62z" />
    <glyph glyph-name="twosuperior" unicode="&#xb2;" horiz-adv-x="432" 
d="M216 690q65 0 90.5 -26.5t25.5 -74.5q0 -40 -24 -65.5t-53 -42.5q-16 -9 -32.5 -16.5t-29 -16.5t-21 -20.5t-8.5 -29.5h167v-56h-236v31q0 33 9 56.5t24 41t35.5 30.5t44.5 24q27 14 44 26.5t17 34.5q0 17 -5 26t-13 14t-18 6t-20 1q-32 0 -50.5 -14.5t-35.5 -38.5
l-39 38q19 35 52.5 53.5t75.5 18.5z" />
    <glyph glyph-name="threesuperior" unicode="&#xb3;" horiz-adv-x="312" 
d="M282 583q0 -32 -20 -50.5t-46 -26.5q26 -6 48 -25.5t22 -55.5v-16q0 -46 -34 -68.5t-88 -22.5q-100 0 -121 78l48 25q5 -29 25 -38.5t46 -9.5q28 0 44 8t16 31v13q0 25 -17 40.5t-40 15.5h-59v52h55q26 0 42 13.5t16 32.5v10q0 15 -5 23.5t-12.5 13t-17 5.5t-19.5 1
q-59 0 -71 -46l-45 20q4 22 15.5 37.5t27.5 25t35.5 14t39.5 4.5q56 0 85.5 -22.5t29.5 -73.5v-8z" />
    <glyph glyph-name="paragraph" unicode="&#xb6;" horiz-adv-x="460" 
d="M377 680v-680h-58v632h-55v-632h-61v373h-24q-69 0 -100.5 33t-31.5 96v37q0 66 34 103.5t98 37.5h198z" />
    <glyph glyph-name="periodcentered" unicode="&#xb7;" horiz-adv-x="198" 
d="M64 306h99v-107h-99v107z" />
    <glyph glyph-name="onesuperior" unicode="&#xb9;" horiz-adv-x="252" 
d="M122 612h-92v68h158v-338h-66v270z" />
    <glyph glyph-name="ordmasculine" unicode="&#xba;" horiz-adv-x="328" 
d="M163 690q57 0 87.5 -28.5t30.5 -73.5v-102q0 -26 -9.5 -45.5t-26 -32t-37.5 -19t-45 -6.5q-54 0 -85 27.5t-31 76.5v105q0 23 10 41.5t26.5 31t37.5 19t42 6.5zM215 586q1 25 -15.5 35.5t-35.5 10.5q-24 0 -37 -12.5t-14 -34.5v-93q-1 -21 10 -36.5t41 -15.5
q28 0 39.5 14t11.5 40v92z" />
    <glyph glyph-name="guillemotright" unicode="&#xbb;" horiz-adv-x="397" 
d="M125 169l-89 142l40 35l126 -178l-127 -174l-38 38zM268 169l-89 142l39 35l127 -178l-128 -174l-38 38z" />
    <glyph glyph-name="onequarter" unicode="&#xbc;" horiz-adv-x="647" 
d="M122 612h-92v68h158v-338h-66v270zM81 0l366 680h69l-362 -680h-73zM547 146h65v-55h-65v-91h-61v91h-159v43l129 225h91v-213zM486 304h-8l-79 -158h87v158z" />
    <glyph glyph-name="onehalf" unicode="&#xbd;" horiz-adv-x="634" 
d="M122 612h-92v68h158v-338h-66v270zM49 0l366 680h69l-362 -680h-73zM461 350q65 0 90.5 -26.5t25.5 -74.5q0 -40 -24 -65.5t-53 -42.5q-16 -9 -32.5 -16.5t-29 -16.5t-21 -20.5t-8.5 -29.5h167v-56h-236v31q0 33 9 56.5t24 41t35.5 30.5t44.5 24q27 14 44 26.5t17 34.5
q0 17 -5 26t-13 14t-18 6t-20 1q-32 0 -50.5 -14.5t-35.5 -38.5l-39 38q19 35 52.5 53.5t75.5 18.5z" />
    <glyph glyph-name="onethird" unicode="&#x2153;" horiz-adv-x="610" 
d="M122 612h-92v68h158v-338h-66v270zM50 0l366 680h69l-362 -680h-73zM569 262q0 -32 -20 -50.5t-46 -26.5q26 -6 48 -25.5t22 -55.5v-16q0 -46 -34 -68.5t-88 -22.5q-100 0 -121 78l48 25q5 -29 25 -38.5t46 -9.5q28 0 44 8t16 31v13q0 25 -17 40.5t-40 15.5h-59v52h55
q26 0 42 13.5t16 32.5v10q0 15 -5 23.5t-12.5 13t-17 5.5t-19.5 1q-59 0 -71 -46l-45 20q4 22 15.5 37.5t27.5 25t35.5 14t39.5 4.5q56 0 85.5 -22.5t29.5 -73.5v-8z" />
    <glyph glyph-name="twothirds" unicode="&#x2154;" horiz-adv-x="775" 
d="M178 0l366 680h69l-362 -680h-73zM708 259q0 -32 -20 -50.5t-46 -26.5q26 -6 48 -25.5t22 -55.5v-16q0 -46 -34 -68.5t-88 -22.5q-100 0 -121 78l48 25q5 -29 25 -38.5t46 -9.5q28 0 44 8t16 31v13q0 25 -17 40.5t-40 15.5h-59v52h55q26 0 42 13.5t16 32.5v10
q0 15 -5 23.5t-12.5 13t-17 5.5t-19.5 1q-59 0 -71 -46l-45 20q4 22 15.5 37.5t27.5 25t35.5 14t39.5 4.5q56 0 85.5 -22.5t29.5 -73.5v-8zM212 691q65 0 90.5 -26.5t25.5 -74.5q0 -40 -24 -65.5t-53 -42.5q-16 -9 -32.5 -16.5t-29 -16.5t-21 -20.5t-8.5 -29.5h167v-56h-236
v31q0 33 9 56.5t24 41t35.5 30.5t44.5 24q27 14 44 26.5t17 34.5q0 17 -5 26t-13 14t-18 6t-20 1q-32 0 -50.5 -14.5t-35.5 -38.5l-39 38q19 35 52.5 53.5t75.5 18.5z" />
    <glyph glyph-name="threequarters" unicode="&#xbe;" horiz-adv-x="688" 
d="M282 583q0 -32 -20 -50.5t-46 -26.5q26 -6 48 -25.5t22 -55.5v-16q0 -46 -34 -68.5t-88 -22.5q-100 0 -121 78l48 25q5 -29 25 -38.5t46 -9.5q28 0 44 8t16 31v13q0 25 -17 40.5t-40 15.5h-59v52h55q26 0 42 13.5t16 32.5v10q0 15 -5 23.5t-12.5 13t-17 5.5t-19.5 1
q-59 0 -71 -46l-45 20q4 22 15.5 37.5t27.5 25t35.5 14t39.5 4.5q56 0 85.5 -22.5t29.5 -73.5v-8zM144 0l366 680h69l-362 -680h-73zM591 145h65v-55h-65v-91h-61v91h-159v43l129 225h91v-213zM530 303h-8l-79 -158h87v158z" />
    <glyph glyph-name="questiondown" unicode="&#xbf;" horiz-adv-x="360" 
d="M179 -214q-68 0 -101.5 28.5t-33.5 98.5v69q0 24 11 49.5t28 44.5q18 20 33 37.5t25.5 36.5t16 41t5.5 49v42h73v-72q0 -20 -6.5 -40.5t-16.5 -40.5t-23 -38t-27 -33q-18 -20 -31 -37.5t-13 -42.5v-55q0 -18 2 -31t8.5 -21t19.5 -12t35 -4q14 0 28.5 6t28.5 15t26 20
t21 21l44 -49q-31 -38 -71.5 -60t-81.5 -22zM245 383h-99v108h99v-108z" />
    <glyph glyph-name="AE" unicode="&#xc6;" horiz-adv-x="759" 
d="M475 321v-251h246v-70h-322v187h-199l-96 -187h-84l333 680h349v-70h-226v-224h189v-65h-190zM399 252v364l-169 -364h169z" />
    <glyph glyph-name="Ccedilla" unicode="&#xc7;" horiz-adv-x="497" 
d="M262 620q-33 0 -57.5 -9.5t-40.5 -26.5t-24 -40t-8 -50v-310q0 -67 35 -95.5t95 -28.5q49 0 81 16.5t58 45.5l46 -55q-38 -40 -84.5 -58.5t-100.5 -18.5q-105 0 -155.5 52.5t-50.5 141.5v310q0 48 15.5 84.5t43 61t65.5 37.5t82 13q67 0 112 -25.5t74 -69.5l-51 -51
q-22 33 -57 54.5t-78 21.5zM309 0l-13 -56q7 -3 17.5 -9t20 -17t16.5 -27.5t7 -40.5q0 -44 -29 -69t-75 -42l-20 44q20 11 38 24t18 39q0 22 -6 34.5t-14.5 19t-18 8t-16.5 3.5l16 89h59z" />
    <glyph glyph-name="Eth" unicode="&#xd0;" horiz-adv-x="575" 
d="M24 372h108v305h175q113 0 167 -53t54 -142v-289q0 -54 -17.5 -91t-47.5 -59.5t-70.5 -32.5t-86.5 -10h-174v311h-108v61zM452 483q0 36 -11 59.5t-30 38t-45.5 20.5t-58.5 6h-99v-235h124v-61h-124v-241h98q78 0 112 32.5t34 90.5v290z" />
    <glyph glyph-name="multiply" unicode="&#xd7;" horiz-adv-x="479" 
d="M424 490l-149 -238l157 -252h-72l-121 196l-120 -196h-72l157 252l-149 238h69l115 -183l116 183h69z" />
    <glyph glyph-name="Thorn" unicode="&#xde;" horiz-adv-x="439" 
d="M236 544q41 0 70.5 -12.5t48.5 -35.5t28 -54.5t9 -69.5v-30q0 -83 -41 -120.5t-115 -37.5h-113v-184h-76v679h76v-135h113zM316 372q0 46 -21 74.5t-62 28.5h-110v-222h111q45 0 63.5 25t18.5 64v30z" />
    <glyph glyph-name="ccedilla" unicode="&#xe7;" horiz-adv-x="419" 
d="M213 430q-42 0 -66.5 -26t-24.5 -68v-184q0 -45 25 -68.5t70 -23.5q26 0 51.5 10.5t42.5 32.5l47 -51q-28 -32 -65.5 -47t-77.5 -15q-77 0 -122.5 42.5t-45.5 119.5v184q0 36 12 66t34 52t52.5 34t67.5 12q93 0 149 -76l-51 -50q-18 25 -43.5 40.5t-54.5 15.5zM252 14
l-13 -56q7 -3 17.5 -9t20 -17t16.5 -27.5t7 -40.5q0 -44 -29 -69t-75 -42l-20 44q20 11 38 24t18 39q0 22 -6 34.5t-14.5 19t-18 8t-16.5 3.5l16 89h59z" />
    <glyph glyph-name="eth" unicode="&#xf0;" horiz-adv-x="449" 
d="M371 724l22 -50l-95 -53q52 -68 75.5 -139.5t23.5 -151.5v-177q0 -43 -14.5 -73.5t-39 -50t-57.5 -29t-70 -9.5q-85 0 -127 42.5t-42 119.5v166q0 69 35 111.5t117 43.5q35 0 60.5 -9.5t48.5 -30.5q-12 48 -31.5 83.5t-45.5 67.5l-118 -64l-22 49l100 55q-29 27 -53 40.5
t-54 20.5l24 67q27 -8 47.5 -17t38.5 -20t34 -24t33 -30zM321 297q0 56 -30 81.5t-76 25.5q-50 0 -71 -23.5t-21 -67.5v-160q0 -52 25.5 -72t67.5 -20q52 0 77.5 23.5t27.5 68.5v144z" />
    <glyph glyph-name="divide" unicode="&#xf7;" horiz-adv-x="578" 
d="M47 312h484v-61h-484v61zM240 174h97v-103h-97v103zM337 385h-97v103h97v-103z" />
    <glyph glyph-name="thorn" unicode="&#xfe;" horiz-adv-x="474" 
d="M267 500q85 0 122.5 -40.5t37.5 -117.5v-191q0 -87 -43 -124.5t-118 -37.5q-43 0 -70.5 13.5t-48.5 41.5v-280h-74v961h74v-273q26 29 55 38.5t65 9.5zM352 331q0 56 -25.5 77.5t-69.5 21.5q-53 0 -80.5 -28.5t-27.5 -72.5v-145q0 -125 108 -125q50 0 72.5 21.5
t22.5 66.5v184z" />
    <glyph glyph-name="Asmall" unicode="&#xf761;" horiz-adv-x="485" 
d="M282 543l177 -543h-80l-50 147h-174l-50 -147h-80l180 543h77zM312 211l-69 228l-70 -228h139z" />
    <glyph glyph-name="Bsmall" unicode="&#xf762;" horiz-adv-x="465" 
d="M396 373q0 -17 -6 -32t-15.5 -27.5t-21.5 -22t-23 -14.5q35 -8 59.5 -36.5t24.5 -68.5v-40q0 -64 -38.5 -98t-98.5 -34h-191v540h174q69 0 103 -37t34 -94zM339 172q0 34 -18.5 53t-50.5 19h-109v-176h109q35 0 52 21t17 53v30zM161 303h98q26 0 44 19.5t18 48.5v30
q0 38 -20.5 54.5t-52.5 16.5h-87v-169z" />
    <glyph glyph-name="Csmall" unicode="&#xf763;" horiz-adv-x="456" 
d="M243 477q-28 0 -50 -10t-37 -27.5t-22.5 -39.5t-7.5 -46v-167q0 -60 33 -91t83 -31q35 0 66 15.5t54 38.5l42 -52q-35 -40 -75.5 -56t-86.5 -16t-81.5 14.5t-60 40t-37 61t-12.5 76.5v167q0 45 15 80.5t41.5 60t61.5 38t74 13.5q107 0 164 -86l-52 -48q-23 35 -51.5 50
t-60.5 15z" />
    <glyph glyph-name="Dsmall" unicode="&#xf764;" horiz-adv-x="487" 
d="M241 543q44 0 80 -15t61.5 -40.5t39.5 -60.5t14 -74v-164q0 -46 -15.5 -81t-42 -59t-62 -36.5t-75.5 -12.5h-155v543h155zM361 353q0 28 -10 50t-26.5 37.5t-38.5 24t-45 8.5h-80v-403h80q58 0 89 34t31 85v164z" />
    <glyph glyph-name="Esmall" unicode="&#xf765;" horiz-adv-x="424" 
d="M162 240v-170h211v-70h-286v543h269v-69h-194v-169h163v-65h-163z" />
    <glyph glyph-name="Fsmall" unicode="&#xf766;" horiz-adv-x="389" 
d="M356 473h-195v-172h164v-66h-163v-235h-76v543h270v-70z" />
    <glyph glyph-name="Gsmall" unicode="&#xf767;" horiz-adv-x="486" 
d="M234 286h184v-223q-23 -20 -44 -33.5t-42 -22t-44 -12t-51 -3.5q-91 0 -138.5 50.5t-47.5 142.5v169q0 44 14 80t40 61t62 38.5t79 13.5q51 0 90.5 -18t70.5 -62l-47 -53q-22 30 -50.5 46.5t-63.5 16.5q-54 0 -87 -34t-33 -89v-169q0 -58 27 -90.5t84 -32.5q16 0 29 1
t25 4.5t24.5 10.5t27.5 18v132h-109v58z" />
    <glyph glyph-name="Hsmall" unicode="&#xf768;" horiz-adv-x="553" 
d="M392 538h75v-538h-75v244h-231v-244h-75v538h75v-224h231v224z" />
    <glyph glyph-name="Ismall" unicode="&#xf769;" horiz-adv-x="263" 
d="M94 538h75v-538h-75v538z" />
    <glyph glyph-name="Jsmall" unicode="&#xf76a;" horiz-adv-x="404" 
d="M244 538h75v-407q0 -35 -11.5 -61.5t-32 -44t-47.5 -26.5t-57 -9q-73 0 -109.5 39t-36.5 106l72 9q1 -38 22 -61.5t53 -23.5q35 0 53.5 20t18.5 52v407z" />
    <glyph glyph-name="Ksmall" unicode="&#xf76b;" horiz-adv-x="485" 
d="M161 305l202 233h96l-212 -242l230 -296h-96l-186 242l-34 -36v-206h-75v538h75v-233z" />
    <glyph glyph-name="Lsmall" unicode="&#xf76c;" horiz-adv-x="397" 
d="M162 538v-468h228v-70h-303v538h75z" />
    <glyph glyph-name="Msmall" unicode="&#xf76d;" horiz-adv-x="623" 
d="M168 538l143 -268l144 268h83v-538h-76v402l-133 -247h-35l-133 246v-401h-75v538h82z" />
    <glyph glyph-name="Nsmall" unicode="&#xf76e;" horiz-adv-x="570" 
d="M415 538h70v-538h-89l-241 407v-407h-69v538h84l245 -408v408z" />
    <glyph glyph-name="Osmall" unicode="&#xf76f;" horiz-adv-x="520" 
d="M267 546q41 0 76.5 -14t61.5 -39.5t41 -61t15 -77.5v-169q0 -45 -14.5 -80.5t-40.5 -60.5t-62 -38.5t-78 -13.5h-11q-43 0 -79 13.5t-61.5 38.5t-40 60.5t-14.5 80.5v169q0 42 14.5 77.5t41 61t62 39.5t77.5 14h12v0zM386 354q0 26 -9.5 48.5t-25.5 39t-37.5 26
t-46.5 9.5h-12q-26 0 -48 -9.5t-38 -26t-25 -39t-9 -48.5v-169q0 -57 33 -90t87 -33h11q53 0 86.5 33t33.5 90v169z" />
    <glyph glyph-name="Psmall" unicode="&#xf770;" horiz-adv-x="448" 
d="M86 538h167q35 0 61.5 -11.5t45.5 -31.5t28.5 -47.5t9.5 -59.5v-35q0 -73 -41 -107t-105 -34h-91v-212h-75v538zM321 388q0 41 -19 61t-49 20h-92v-191h92q35 0 51.5 21t16.5 53v36z" />
    <glyph glyph-name="Qsmall" unicode="&#xf771;" horiz-adv-x="529" 
d="M411 28q6 -14 18 -21t26 -7h32v-58h-34q-27 -1 -52.5 11.5t-33.5 28.5l-22 33q-20 -11 -39.5 -15t-39.5 -4h-11q-46 0 -82.5 14.5t-61.5 40.5t-38 61.5t-13 76.5v161q0 45 15.5 81t42 61t62 38.5t75.5 13.5h11q44 0 79.5 -13.5t61 -37.5t39 -56.5t13.5 -71.5v-171
q0 -51 -14.5 -86t-44.5 -61zM265 62q11 0 23.5 3t22.5 10l-55 91l53 33l53 -89q14 18 20 40t6 44v158q0 34 -9 57t-25 37.5t-38.5 21t-49.5 6.5h-11q-28 0 -50.5 -10t-38 -27.5t-23.5 -40t-8 -46.5v-161q0 -30 9.5 -53.5t25.5 -40t38 -25t47 -8.5h10z" />
    <glyph glyph-name="Rsmall" unicode="&#xf772;" horiz-adv-x="504" 
d="M421 360q0 -56 -28 -90.5t-71 -48.5l114 -221h-83l-111 213h-81v-213h-75v539h195q69 0 104.5 -40.5t35.5 -105.5v-33v0zM161 276h117q32 0 49.5 22.5t17.5 55.5v37q0 40 -21.5 59t-49.5 19h-113v-193z" />
    <glyph glyph-name="Ssmall" unicode="&#xf773;" horiz-adv-x="440" 
d="M244 306q37 -14 64.5 -27.5t46 -31.5t28 -42.5t9.5 -60.5q0 -41 -15 -70t-39.5 -47t-55.5 -26.5t-63 -8.5q-59 0 -101.5 25t-69.5 70l49 50q20 -34 50.5 -55.5t68.5 -21.5q46 0 73.5 18t27.5 63q0 22 -9 38t-24.5 27.5t-35.5 20.5t-41 18q-34 12 -61.5 25t-47 30
t-29.5 41t-10 58q0 39 15 66.5t39.5 45t55.5 25t63 7.5q48 0 86 -24t65 -55l-50 -49q-17 25 -42.5 42t-57.5 17q-17 0 -34.5 -3t-32 -11t-24 -22.5t-9.5 -38.5q0 -22 9.5 -35.5t25 -23.5t35.5 -17.5t41 -16.5z" />
    <glyph glyph-name="Tsmall" unicode="&#xf774;" horiz-adv-x="412" 
d="M16 538h380v-70h-153v-468h-75v468h-152v70z" />
    <glyph glyph-name="Usmall" unicode="&#xf775;" horiz-adv-x="556" 
d="M395 539h75v-356q0 -93 -52.5 -141.5t-138.5 -48.5q-43 0 -78.5 13.5t-61 38t-39.5 60t-14 78.5v356h75v-356q0 -60 32.5 -90t85.5 -30q56 0 86 30t30 90v356z" />
    <glyph glyph-name="Vsmall" unicode="&#xf776;" horiz-adv-x="486" 
d="M105 539l137 -426l139 426h80l-182 -539h-75l-179 539h80z" />
    <glyph glyph-name="Wsmall" unicode="&#xf777;" horiz-adv-x="644" 
d="M358 539l94 -389l90 390h77l-126 -540h-76l-95 407l-98 -407h-75l-124 540h77l89 -389l95 388h72z" />
    <glyph glyph-name="Xsmall" unicode="&#xf778;" horiz-adv-x="548" 
d="M147 538l129 -201l131 201h88l-176 -262l178 -276h-89l-133 209l-136 -209h-88l181 275l-173 263h88z" />
    <glyph glyph-name="Ysmall" unicode="&#xf779;" horiz-adv-x="486" 
d="M112 538l125 -228l129 228h86l-178 -312v-226h-74v226l-175 312h87z" />
    <glyph glyph-name="Zsmall" unicode="&#xf77a;" horiz-adv-x="475" 
d="M416 70v-70h-356v48l251 421h-238v69h339v-48l-251 -420h255z" />
    <glyph glyph-name="Zcaronsmall" unicode="&#xf6ff;" horiz-adv-x="455" 
d="M416 70v-70h-356v48l251 421h-238v69h339v-48l-251 -420h255zM229 536l-94 112l35 31l59 -66l59 65l31 -30z" />
    <glyph glyph-name="Scaronsmall" unicode="&#xf6fd;" horiz-adv-x="432" 
d="M389 226v-82q0 -41 -15 -70t-39 -47t-55 -26.5t-64 -8.5q-58 0 -101 24t-70 69l50 50q20 -35 50.5 -55t67.5 -20q47 0 74.5 18t27.5 63v50l-247 108v100q0 39 14.5 66.5t38.5 45t55 25t63 7.5q24 0 45.5 -7t41 -18.5t35.5 -25t29 -27.5l-50 -49q-15 23 -43.5 40.5
t-60.5 17.5q-14 0 -30.5 -3t-30.5 -11t-23.5 -22.5t-9.5 -38.5v-65zM218 536l-94 112l35 31l59 -66l59 65l31 -30z" />
    <glyph glyph-name="Agravesmall" unicode="&#xf7e0;" 
d="M282 543l177 -543h-80l-50 147h-174l-50 -147h-80l180 543h77zM312 211l-69 228l-70 -228h139zM201 767l80 -148l-43 -36l-91 142z" />
    <glyph glyph-name="Aacutesmall" unicode="&#xf7e1;" 
d="M282 543l177 -543h-80l-50 147h-174l-50 -147h-80l180 543h77zM312 211l-69 228l-70 -228h139zM278 761l52 -38l-92 -140l-42 33z" />
    <glyph glyph-name="Acircumflexsmall" unicode="&#xf7e2;" 
d="M282 543l177 -543h-80l-50 147h-174l-50 -147h-80l180 543h77zM312 211l-69 228l-70 -228h139zM239 743l107 -91l-29 -44l-78 62l-78 -61l-30 45z" />
    <glyph glyph-name="Atildesmall" unicode="&#xf7e3;" 
d="M282 543l177 -543h-80l-50 147h-174l-50 -147h-80l180 543h77zM312 211l-69 228l-70 -228h139zM185 669q-14 0 -23.5 -11.5t-15.5 -27.5l-38 30q19 37 36 53.5t44 16.5q16 0 31.5 -7t29 -15.5t25 -15t20.5 -6.5q14 1 20.5 12t13.5 25l41 -26q-11 -30 -29 -51t-44 -21
q-20 0 -35.5 7t-28 15t-24 15t-23.5 7z" />
    <glyph glyph-name="Adieresissmall" unicode="&#xf7e4;" 
d="M282 543l177 -543h-80l-50 147h-174l-50 -147h-80l180 543h77zM312 211l-69 228l-70 -228h139zM202 624h-76v83h76v-83zM348 624h-75v83h75v-83z" />
    <glyph glyph-name="Aringsmall" unicode="&#xf7e5;" 
d="M282 543l177 -543h-80l-50 147h-174l-50 -147h-80l180 543h77zM312 211l-69 228l-70 -228h139zM245 597q-35 0 -54.5 22.5t-19.5 55.5q0 42 23 60t51 18q37 0 55.5 -22t18.5 -56q0 -40 -22.5 -59t-51.5 -19zM213 674q0 -25 11 -31.5t22 -6.5q14 0 23.5 8.5t9.5 29.5
q0 26 -11 34t-22 8q-14 0 -23.5 -10.5t-9.5 -31.5z" />
    <glyph glyph-name="Egravesmall" unicode="&#xf7e8;" horiz-adv-x="401" 
d="M162 240v-170h211v-70h-286v543h269v-69h-194v-169h163v-65h-163zM178 767l80 -148l-43 -36l-91 142z" />
    <glyph glyph-name="Eacutesmall" unicode="&#xf7e9;" horiz-adv-x="401" 
d="M162 240v-170h211v-70h-286v543h269v-69h-194v-169h163v-65h-163zM255 761l52 -38l-92 -140l-42 33z" />
    <glyph glyph-name="Ecircumflexsmall" unicode="&#xf7ea;" horiz-adv-x="401" 
d="M162 240v-170h211v-70h-286v543h269v-69h-194v-169h163v-65h-163zM216 743l107 -91l-29 -44l-78 62l-78 -61l-30 45z" />
    <glyph glyph-name="Edieresissmall" unicode="&#xf7eb;" horiz-adv-x="401" 
d="M162 240v-170h211v-70h-286v543h269v-69h-194v-169h163v-65h-163zM180 624h-76v83h76v-83zM326 624h-75v83h75v-83z" />
    <glyph glyph-name="Igravesmall" unicode="&#xf7ec;" horiz-adv-x="232" 
d="M94 538h75v-538h-75v538zM81 767l80 -148l-43 -36l-91 142z" />
    <glyph glyph-name="Iacutesmall" unicode="&#xf7ed;" horiz-adv-x="232" 
d="M94 538h75v-538h-75v538zM156 761l52 -38l-92 -140l-42 33z" />
    <glyph glyph-name="Icircumflexsmall" unicode="&#xf7ee;" horiz-adv-x="232" 
d="M94 538h75v-538h-75v538zM118 743l107 -91l-29 -44l-78 62l-78 -61l-30 45z" />
    <glyph glyph-name="Idieresissmall" unicode="&#xf7ef;" horiz-adv-x="232" 
d="M94 538h75v-538h-75v538zM82 624h-76v83h76v-83zM228 624h-75v83h75v-83z" />
    <glyph glyph-name="Ntildesmall" unicode="&#xf7f1;" horiz-adv-x="543" 
d="M415 538h70v-538h-89l-241 407v-407h-69v538h84l245 -408v408zM218 633q-14 0 -23.5 -11.5t-15.5 -27.5l-38 30q19 37 36 53.5t44 16.5q16 0 31.5 -7t29 -15.5t25 -15t20.5 -6.5q14 1 20.5 12t13.5 25l41 -26q-11 -30 -29 -51t-44 -21q-20 0 -35.5 7t-28 15t-24 15
t-23.5 7z" />
    <glyph glyph-name="Ogravesmall" unicode="&#xf7f2;" horiz-adv-x="500" 
d="M267 546q41 0 76.5 -14t61.5 -39.5t41 -61t15 -77.5v-169q0 -45 -14.5 -80.5t-40.5 -60.5t-62 -38.5t-78 -13.5h-11q-43 0 -79 13.5t-61.5 38.5t-40 60.5t-14.5 80.5v169q0 42 14.5 77.5t41 61t62 39.5t77.5 14h12v0zM386 354q0 26 -9.5 48.5t-25.5 39t-37.5 26
t-46.5 9.5h-12q-26 0 -48 -9.5t-38 -26t-25 -39t-9 -48.5v-169q0 -57 33 -90t87 -33h11q53 0 86.5 33t33.5 90v169zM213 767l80 -148l-43 -36l-91 142z" />
    <glyph glyph-name="Oacutesmall" unicode="&#xf7f3;" horiz-adv-x="500" 
d="M267 546q41 0 76.5 -14t61.5 -39.5t41 -61t15 -77.5v-169q0 -45 -14.5 -80.5t-40.5 -60.5t-62 -38.5t-78 -13.5h-11q-43 0 -79 13.5t-61.5 38.5t-40 60.5t-14.5 80.5v169q0 42 14.5 77.5t41 61t62 39.5t77.5 14h12v0zM386 354q0 26 -9.5 48.5t-25.5 39t-37.5 26
t-46.5 9.5h-12q-26 0 -48 -9.5t-38 -26t-25 -39t-9 -48.5v-169q0 -57 33 -90t87 -33h11q53 0 86.5 33t33.5 90v169zM290 761l52 -38l-92 -140l-42 33z" />
    <glyph glyph-name="Ocircumflexsmall" unicode="&#xf7f4;" horiz-adv-x="500" 
d="M267 546q41 0 76.5 -14t61.5 -39.5t41 -61t15 -77.5v-169q0 -45 -14.5 -80.5t-40.5 -60.5t-62 -38.5t-78 -13.5h-11q-43 0 -79 13.5t-61.5 38.5t-40 60.5t-14.5 80.5v169q0 42 14.5 77.5t41 61t62 39.5t77.5 14h12v0zM386 354q0 26 -9.5 48.5t-25.5 39t-37.5 26
t-46.5 9.5h-12q-26 0 -48 -9.5t-38 -26t-25 -39t-9 -48.5v-169q0 -57 33 -90t87 -33h11q53 0 86.5 33t33.5 90v169zM250 743l107 -91l-29 -44l-78 62l-78 -61l-30 45z" />
    <glyph glyph-name="Otildesmall" unicode="&#xf7f5;" horiz-adv-x="500" 
d="M267 546q41 0 76.5 -14t61.5 -39.5t41 -61t15 -77.5v-169q0 -45 -14.5 -80.5t-40.5 -60.5t-62 -38.5t-78 -13.5h-11q-43 0 -79 13.5t-61.5 38.5t-40 60.5t-14.5 80.5v169q0 42 14.5 77.5t41 61t62 39.5t77.5 14h12v0zM386 354q0 26 -9.5 48.5t-25.5 39t-37.5 26
t-46.5 9.5h-12q-26 0 -48 -9.5t-38 -26t-25 -39t-9 -48.5v-169q0 -57 33 -90t87 -33h11q53 0 86.5 33t33.5 90v169zM197 669q-14 0 -23.5 -11.5t-15.5 -27.5l-38 30q19 37 36 53.5t44 16.5q16 0 31.5 -7t29 -15.5t25 -15t20.5 -6.5q14 1 20.5 12t13.5 25l41 -26
q-11 -30 -29 -51t-44 -21q-20 0 -35.5 7t-28 15t-24 15t-23.5 7z" />
    <glyph glyph-name="Odieresissmall" unicode="&#xf7f6;" horiz-adv-x="500" 
d="M267 546q41 0 76.5 -14t61.5 -39.5t41 -61t15 -77.5v-169q0 -45 -14.5 -80.5t-40.5 -60.5t-62 -38.5t-78 -13.5h-11q-43 0 -79 13.5t-61.5 38.5t-40 60.5t-14.5 80.5v169q0 42 14.5 77.5t41 61t62 39.5t77.5 14h12v0zM386 354q0 26 -9.5 48.5t-25.5 39t-37.5 26
t-46.5 9.5h-12q-26 0 -48 -9.5t-38 -26t-25 -39t-9 -48.5v-169q0 -57 33 -90t87 -33h11q53 0 86.5 33t33.5 90v169zM215 624h-76v83h76v-83zM361 624h-75v83h75v-83z" />
    <glyph glyph-name="Ugravesmall" unicode="&#xf7f9;" horiz-adv-x="528" 
d="M395 539h75v-356q0 -93 -52.5 -141.5t-138.5 -48.5q-43 0 -78.5 13.5t-61 38t-39.5 60t-14 78.5v356h75v-356q0 -60 32.5 -90t85.5 -30q56 0 86 30t30 90v356zM227 757l80 -148l-43 -36l-91 142z" />
    <glyph glyph-name="Uacutesmall" unicode="&#xf7fa;" horiz-adv-x="528" 
d="M395 539h75v-356q0 -93 -52.5 -141.5t-138.5 -48.5q-43 0 -78.5 13.5t-61 38t-39.5 60t-14 78.5v356h75v-356q0 -60 32.5 -90t85.5 -30q56 0 86 30t30 90v356zM304 751l52 -38l-92 -140l-42 33z" />
    <glyph glyph-name="Ucircumflexsmall" unicode="&#xf7fb;" horiz-adv-x="528" 
d="M395 539h75v-356q0 -93 -52.5 -141.5t-138.5 -48.5q-43 0 -78.5 13.5t-61 38t-39.5 60t-14 78.5v356h75v-356q0 -60 32.5 -90t85.5 -30q56 0 86 30t30 90v356zM264 743l107 -91l-29 -44l-78 62l-78 -61l-30 45z" />
    <glyph glyph-name="Udieresissmall" unicode="&#xf7fc;" horiz-adv-x="528" 
d="M395 539h75v-356q0 -93 -52.5 -141.5t-138.5 -48.5q-43 0 -78.5 13.5t-61 38t-39.5 60t-14 78.5v356h75v-356q0 -60 32.5 -90t85.5 -30q56 0 86 30t30 90v356zM229 624h-76v83h76v-83zM375 624h-75v83h75v-83z" />
    <glyph glyph-name="Yacutesmall" unicode="&#xf7fd;" horiz-adv-x="475" 
d="M112 538l125 -228l129 228h86l-178 -312v-226h-74v226l-175 312h87zM273 751l52 -38l-92 -140l-42 33z" />
    <glyph glyph-name="Ydieresissmall" unicode="&#xf7ff;" horiz-adv-x="475" 
d="M112 538l125 -228l129 228h86l-178 -312v-226h-74v226l-175 312h87zM199 624h-76v83h76v-83zM345 624h-75v83h75v-83z" />
    <glyph glyph-name="Ccedillasmall" unicode="&#xf7e7;" horiz-adv-x="440" 
d="M243 477q-28 0 -50 -10t-37 -27.5t-22.5 -39.5t-7.5 -46v-167q0 -60 33 -91t83 -31q35 0 66 15.5t54 38.5l42 -52q-35 -40 -75.5 -56t-86.5 -16t-81.5 14.5t-60 40t-37 61t-12.5 76.5v167q0 45 15 80.5t41.5 60t61.5 38t74 13.5q107 0 164 -86l-52 -48q-23 35 -51.5 50
t-60.5 15zM274 0l-13 -56q7 -3 17.5 -9t20 -17t16.5 -27.5t7 -40.5q0 -44 -29 -69t-75 -42l-20 44q20 11 38 24t18 39q0 22 -6 34.5t-14.5 19t-18 8t-16.5 3.5l16 89h59z" />
    <glyph glyph-name="greaterequal" unicode="&#x2265;" horiz-adv-x="507" 
d="M445 0h-398v59h398v-59zM453 314l-406 -203v60l284 143l-284 144v65z" />
    <glyph glyph-name="lessequal" unicode="&#x2264;" horiz-adv-x="531" 
d="M466 105l-419 208l419 209v-67l-282 -142l282 -142v-66zM55 59h411v-59h-411v59z" />
    <glyph glyph-name="notequal" unicode="&#x2260;" horiz-adv-x="572" 
d="M393 443h132v-63h-161l-66 -138h227v-62h-256l-66 -137l-48 29l52 108h-160v62h188l68 138h-256v63h284l60 124l47 -31z" />
    <glyph glyph-name="Q.alt" horiz-adv-x="556" 
d="M309 -62l200 -51l-9 -59l-261 58v100q-90 8 -141 56t-51 127v339q0 47 19 81.5t49.5 56.5t70 32.5t80.5 10.5h14q105 0 161.5 -49.5t56.5 -130.5v-340q0 -43 -16 -76t-42 -56.5t-60.5 -36t-70.5 -14.5v-48zM122 169q0 -30 11.5 -51.5t31 -35t44 -20t49.5 -6.5h34
q61 -1 96 30.5t35 85.5v336q0 30 -12.5 51t-33 34.5t-46 19.5t-51.5 6h-14q-69 0 -106.5 -28.5t-37.5 -82.5v-339v0z" />
    <glyph glyph-name="y.alt" horiz-adv-x="416" 
d="M209 145l109 345l77 -6l-235 -722l-70 28l78 231l-147 465l78 4z" />
    <glyph glyph-name="k.alt" horiz-adv-x="461" 
d="M144 710v-405l203 204l44 -53l-191 -188q57 -21 96 -60t64 -80.5t37.5 -77.5t16.5 -50h-80q-5 15 -13.5 36.5t-20.5 44.5t-27.5 46t-35.5 41q-30 28 -53 38.5t-40 11.5v-218h-71v710h71z" />
    <glyph glyph-name="g.alt" horiz-adv-x="469" 
d="M131 291q0 -23 8 -39.5t21.5 -26.5t31 -14.5t36.5 -4.5q44 0 67.5 20.5t23.5 60.5v69q0 24 -8 39.5t-21 25t-30 13.5t-35 4q-43 0 -68.5 -22t-25.5 -60v-65v0zM117 19q-25 12 -35.5 31.5t-10.5 45.5q0 29 18 47t38 26q-36 21 -52 55.5t-16 71.5v58q0 39 12.5 67t35 46
t52.5 26.5t66 8.5q25 0 49 -7t43 -15l95 41l20 -60l-70 -22q13 -13 21 -36t8 -48v-63q0 -40 -13 -69t-35.5 -47t-53 -26.5t-64.5 -8.5q-16 0 -29.5 1t-28.5 6q-12 -4 -20.5 -15t-8.5 -26q0 -20 11 -30.5t34 -20.5l215 -90v-70q0 -37 -13 -62.5t-35 -41.5t-50.5 -23t-59.5 -7
h-28q-72 0 -116.5 35.5t-44.5 103.5q1 17 4.5 30t8.5 24l65 -18q-5 -15 -5 -31q0 -24 8.5 -39.5t22.5 -24.5t32 -12t37 -3h16q38 0 61 16.5t24 55.5v32z" />
    <glyph glyph-name="e.alt" horiz-adv-x="429" 
d="M235 62q34 0 65.5 13.5t50.5 35.5l40 -48q-32 -34 -74.5 -52t-82.5 -18q-41 0 -75.5 11.5t-59 33.5t-38.5 54.5t-14 73.5v180q0 39 14.5 68.5t38.5 49t55.5 29.5t65.5 10q76 0 119.5 -43t43.5 -114v-111h-262v-69q0 -29 9.5 -49t25.5 -32t36 -17.5t42 -5.5zM221 434
q-48 0 -73.5 -25t-25.5 -67v-49h188v53q0 24 -7.5 41t-20 27.5t-28.5 15t-33 4.5z" />
    <glyph glyph-name="zerooldstyle" unicode="&#xf730;" horiz-adv-x="486" 
d="M243 499q100 0 148 -50.5t48 -140.5v-130q0 -49 -14.5 -85t-40 -58.5t-61.5 -33.5t-80 -11q-100 0 -148 49.5t-48 138.5v130q0 50 14 86t39.5 59t62 34.5t80.5 11.5zM363 308q0 67 -32 94.5t-88 27.5q-65 0 -92.5 -33t-27.5 -89v-130q0 -65 32.5 -91.5t87.5 -26.5
q65 0 92.5 30.5t27.5 87.5v130z" />
    <glyph glyph-name="oneoldstyle" unicode="&#xf731;" horiz-adv-x="383" 
d="M70 62h101v361h-95v61l170 8v-430h93v-62h-269v62z" />
    <glyph glyph-name="twooldstyle" unicode="&#xf732;" horiz-adv-x="496" 
d="M306 207q-24 -15 -47.5 -30t-43 -31t-32.5 -34.5t-16 -41.5h273v-70h-352v25q0 39 8.5 70.5t26.5 58t47 50t70 45.5q22 12 42 24t35 25t24 28t9 32q0 40 -24 56t-62 16t-75.5 -19t-63.5 -56l-46 48q30 45 78 71.5t99 26.5q78 0 124 -31.5t46 -100.5q0 -34 -9 -58
t-25 -41.5t-38 -32t-48 -30.5z" />
    <glyph glyph-name="threeoldstyle" unicode="&#xf733;" horiz-adv-x="440" 
d="M356 296q0 -43 -24 -74.5t-57 -47.5q49 -10 74 -44.5t26 -83.5v-26q0 -67 -28.5 -112.5t-74.5 -74t-103.5 -41t-114.5 -12.5l-6 65q51 0 96.5 9.5t80 30t54.5 52.5t20 77v33q0 28 -9 45.5t-24 27t-34.5 13t-39.5 4.5h-57v68h50q46 0 71 24.5t25 63.5v63q0 23 -7 37.5
t-19 22.5t-28.5 11t-36.5 3q-18 0 -35 -5.5t-32 -14t-27 -18t-21 -18.5l-38 54q13 15 31 28.5t38.5 23t42.5 15t44 5.5q80 0 121.5 -34.5t41.5 -103.5v-66z" />
    <glyph glyph-name="fouroldstyle" unicode="&#xf734;" horiz-adv-x="484" 
d="M375 68h94v-68h-94v-220h-72v220h-257v48l196 442h133v-422zM303 426h-14l-159 -358h173v358z" />
    <glyph glyph-name="fiveoldstyle" unicode="&#xf735;" horiz-adv-x="463" 
d="M216 260q98 0 141 -50.5t43 -145.5v-21q0 -72 -31.5 -122t-78.5 -81t-101.5 -45t-100.5 -14l-8 64q31 0 73 8.5t80.5 31t65.5 60.5t27 98v24q0 59 -29.5 91.5t-80.5 32.5h-145l33 299h264v-71h-195l-19 -159h62v0z" />
    <glyph glyph-name="sixoldstyle" unicode="&#xf736;" horiz-adv-x="501" 
d="M265 455q86 0 129 -41.5t43 -116.5v-143q0 -41 -15 -71.5t-40 -50.5t-58.5 -30t-69.5 -10q-85 0 -133 44t-48 118v385q0 38 15.5 66t41 46.5t58 28t66.5 9.5q53 0 86 -20.5t61 -52.5l-47 -52q-17 24 -43.5 40t-52.5 16q-51 0 -81 -23t-30 -58v-138q26 27 54.5 40.5
t63.5 13.5zM362 289q0 26 -8.5 44t-23.5 29t-34.5 16t-41.5 5q-25 0 -45 -8.5t-34 -23.5t-21 -34.5t-7 -40.5v-122q0 -25 8.5 -43t23 -28.5t34 -15.5t41.5 -5q51 0 79.5 23.5t28.5 68.5v135z" />
    <glyph glyph-name="sevenoldstyle" unicode="&#xf737;" horiz-adv-x="425" 
d="M15 490h382l-201 -700h-78l185 630h-288v70z" />
    <glyph glyph-name="eightoldstyle" unicode="&#xf738;" horiz-adv-x="509" 
d="M425 471q0 -20 -7 -38t-18.5 -33t-25.5 -26t-29 -19q38 -23 64.5 -51.5t26.5 -64.5v-93q0 -38 -15.5 -66.5t-41 -48t-58 -29.5t-67.5 -10q-41 0 -74.5 11t-57 31.5t-36.5 49t-13 62.5v90q0 44 27.5 71.5t63.5 47.5q-39 21 -60 52.5t-21 71.5v59q0 37 14 65.5t37.5 47.5
t54.5 29t65 10q38 0 69.5 -11.5t54 -32t35 -48t12.5 -60.5v-67v0zM361 224q0 48 -26.5 70.5t-69.5 22.5h-18q-51 0 -75.5 -25t-24.5 -67v-71q0 -48 31 -70t76 -22q50 0 78.5 24.5t28.5 65.5v72zM158 471q0 -44 25.5 -63t63.5 -21h14q41 3 65 26t24 58v67q0 23 -8 38.5
t-21.5 25t-30.5 14t-36 4.5q-46 0 -71 -22.5t-25 -59.5v-67v0z" />
    <glyph glyph-name="nineoldstyle" unicode="&#xf739;" horiz-adv-x="501" 
d="M246 497q85 0 133.5 -43.5t48.5 -117.5v-277q0 -76 -24.5 -129.5t-64.5 -87t-92 -49t-108 -15.5l-7 64q36 0 75.5 9.5t71.5 32.5t53 62t21 98v35q-24 -28 -49.5 -40.5t-57.5 -12.5q-87 0 -134.5 43.5t-47.5 118.5v148q0 41 14.5 71.5t39 50.5t58 29.5t70.5 9.5zM353 336
q0 25 -8.5 42.5t-23 28.5t-34 16t-41.5 5q-52 0 -79.5 -24.5t-27.5 -67.5v-148q0 -25 8.5 -42.5t23 -28.5t34 -16t41.5 -5q52 0 79.5 30t27.5 75v135z" />
    <glyph glyph-name="asteriskmath" unicode="&#x2217;" horiz-adv-x="480" 
d="M380 438l14 -50l-116 -41l71 -105l-43 -34l-70 103l-73 -104l-43 34l74 106l-117 41l14 51l117 -41v127h55v-127z" />
    <glyph glyph-name="uni00A0" unicode="&#xa0;" horiz-adv-x="214" 
 />
    <glyph glyph-name="germandbls.alt" horiz-adv-x="565" 
d="M173 0h-73v411h-58v69h58v86q0 93 43.5 132.5t123.5 39.5q45 0 79.5 -13.5t57 -37.5t34 -57.5t11.5 -72.5l-81 -150q20 -7 42 -20t40.5 -35t30.5 -53t12 -73v-87q0 -41 -11.5 -70t-32 -47t-49 -26.5t-62.5 -8.5q-45 0 -78.5 18.5t-52.5 45.5l35 58q11 -22 36.5 -39
t61.5 -17q12 0 25.5 3t25.5 12.5t19.5 26.5t7.5 45v87q0 45 -18 71.5t-42.5 41t-50 19.5t-39.5 5l104 200q-1 21 -9 40t-22 33t-32.5 22.5t-39.5 8.5q-53 0 -74.5 -27t-21.5 -75v-566z" />
    <glyph glyph-name="germandbls.alt2" horiz-adv-x="522" 
d="M154 0h-72v561q0 96 43.5 137t125.5 41q87 0 137 -48t50 -143q-22 -25 -38 -45.5t-25.5 -38.5t-14 -36t-4.5 -39t3.5 -34.5t9.5 -23t15 -17.5t19 -17q19 -15 34 -30t25.5 -32.5t16 -39.5t5.5 -51q0 -84 -42.5 -119.5t-116.5 -36.5q-45 0 -78.5 19t-52.5 43l37 59
q15 -23 38 -38.5t58 -15.5q42 0 63.5 23.5t21.5 63.5q0 26 -4.5 42t-12.5 27t-18.5 19.5t-22.5 18.5q-18 15 -32 28.5t-24 29.5t-15.5 36t-5.5 46t5 47.5t15.5 41t26.5 39t37 41.5q0 33 -9 54t-24 34t-34 18t-40 5q-55 0 -77.5 -29.5t-22.5 -78.5v-561z" />
    <glyph glyph-name="zero.small" horiz-adv-x="551" 
d="M275 554q100 0 151.5 -53.5t51.5 -142.5v-177q0 -49 -15.5 -85.5t-42.5 -60.5t-64 -35.5t-81 -11.5q-100 0 -151 52t-51 141v177q0 50 15 87t42 61t64 36t81 12zM403 358q0 67 -36 97t-92 30q-66 0 -97 -35t-31 -92v-177q0 -31 11 -54t29 -38t41 -22.5t47 -9.5
q65 0 96.5 33.5t31.5 90.5v177z" />
    <glyph glyph-name="one.small" horiz-adv-x="316" 
d="M151 470h-104v70h179v-540h-75v470z" />
    <glyph glyph-name="two.small" horiz-adv-x="502" 
d="M308 216q-25 -17 -46.5 -33t-38 -33t-26.5 -36.5t-12 -44.5h261v-69h-354v26q0 42 8.5 74.5t27.5 60t47.5 52.5t68.5 52q22 15 41.5 28.5t33.5 27.5t22.5 30t8.5 36q0 44 -22 65.5t-60 21.5q-37 0 -74.5 -20t-62.5 -58l-52 51q17 24 39 43.5t46.5 33t49.5 20.5t49 7
q37 0 68 -8t53.5 -26t35 -46t12.5 -68q0 -37 -9.5 -64t-26 -48t-39.5 -39t-49 -36z" />
    <glyph glyph-name="three.small" horiz-adv-x="498" 
d="M414 381q0 -40 -21 -66t-55 -38q33 -11 57.5 -40t24.5 -71v-33q0 -37 -14.5 -63.5t-38.5 -43.5t-55.5 -25.5t-66.5 -8.5q-30 0 -58.5 7t-52 22t-39.5 39t-22 58l61 27q1 -22 11 -38t25.5 -26.5t34 -16t36.5 -5.5q20 0 38.5 4t33 13t23.5 24t9 37v33q0 20 -10.5 34t-27 23
t-36.5 13.5t-38 4.5h-63v67h61q20 0 39.5 2t34.5 9t24.5 20t9.5 35v28q0 41 -27.5 57.5t-65.5 16.5q-42 0 -72 -23t-34 -65l-59 31q6 30 22.5 53t39.5 39t51.5 24.5t59.5 8.5q35 0 64.5 -8t50.5 -24.5t33 -42.5t12 -62v-30z" />
    <glyph glyph-name="four.small" horiz-adv-x="506" 
d="M376 210h86v-69h-86v-140h-74v140h-230v48l187 351h117v-330zM302 468h-6l-136 -258h142v258z" />
    <glyph glyph-name="five.small" horiz-adv-x="520" 
d="M273 344q88 0 127 -35t39 -106v-61q0 -43 -12 -72t-34.5 -47t-53.5 -25.5t-69 -7.5q-158 0 -170 144l75 17q0 -54 26.5 -74t68.5 -20q54 0 74 20t20 65v56q0 47 -27 62.5t-72 15.5h-142l23 264h263v-69h-195l-8 -127h67v0z" />
    <glyph glyph-name="six.small" horiz-adv-x="503" 
d="M273 353q76 0 116.5 -35.5t40.5 -114.5v-58q0 -79 -47.5 -117t-123.5 -38q-78 0 -123.5 37t-45.5 118v248q0 75 44.5 116t116.5 41q45 0 82.5 -18t69.5 -53l-40 -53q-20 22 -50.5 38.5t-57.5 16.5q-42 0 -66.5 -21t-24.5 -67v-90q20 24 49.5 37t59.5 13zM355 196
q0 45 -22 66t-65 21q-46 0 -75 -28t-29 -76v-34q0 -46 25.5 -66t69.5 -20q43 0 69.5 19.5t26.5 66.5v51z" />
    <glyph glyph-name="seven.small" horiz-adv-x="391" 
d="M25 540h337l-173 -540h-79l148 471h-233v69z" />
    <glyph glyph-name="eight.small" horiz-adv-x="503" 
d="M411 390q0 -39 -23.5 -68t-59.5 -42q39 -14 66.5 -46.5t27.5 -73.5v-35q0 -36 -14 -61.5t-38 -42t-55 -24t-65 -7.5q-36 0 -66.5 7.5t-53 23.5t-35.5 42t-13 62v32q0 43 24.5 77t66.5 45q-38 14 -59.5 41t-21.5 69v31q0 67 44 99.5t114 32.5q35 0 64.5 -8t51 -24.5
t33.5 -41t12 -58.5v-30v0zM346 154q0 46 -25 68.5t-70 22.5t-70 -19.5t-25 -68.5v-24q0 -45 26.5 -62t68.5 -17q41 0 68 16.5t27 61.5v22zM167 391q0 -46 21.5 -63t62.5 -17q39 0 62 18.5t23 61.5v18q0 41 -23.5 58t-61.5 17q-42 0 -63 -16t-21 -59v-18v0z" />
    <glyph glyph-name="nine.small" horiz-adv-x="501" 
d="M246 553q42 0 74.5 -13t54.5 -35.5t33 -53.5t11 -68v-225q0 -45 -13 -77t-36 -52.5t-54.5 -29.5t-69.5 -9q-48 0 -87.5 17t-66.5 49l36 56q23 -27 55 -41t62 -14q51 0 75 25.5t24 73.5v69q-23 -27 -49 -37t-54 -10q-86 0 -127 47t-41 122v37q0 42 13 73.5t36 52.5
t54.5 32t69.5 11zM344 384q0 51 -27.5 75.5t-70.5 24.5q-52 0 -75.5 -28.5t-23.5 -71.5v-39q0 -51 27.5 -75t71.5 -24q51 0 74.5 27t23.5 72v39z" />
    <glyph glyph-name="h.alt" horiz-adv-x="494" 
d="M404 490v-490h-74v422h-63q-26 0 -48 -11.5t-38 -30t-25 -41.5t-9 -46v-293h-74v710h74v-297q29 47 60 62.5t70 15.5z" />
    <glyph glyph-name="n.alt" horiz-adv-x="495" 
d="M405 490v-490h-75v419h-62q-26 0 -48.5 -11.5t-38.5 -29.5t-25 -41t-9 -46v-291h-74v490h68l5 -82q29 47 59.5 64t72.5 18h127z" />
    <glyph glyph-name="E.alt" horiz-adv-x="496" 
d="M163 494q0 -45 25.5 -74t73.5 -29h57v-68h-59q-19 -1 -39.5 -7.5t-37 -19.5t-27 -31t-10.5 -41v-64q0 -45 33 -72.5t84 -27.5h44q36 0 67 20.5t49 50.5l56 -31q-25 -46 -67 -78t-105 -32h-44q-35 0 -70.5 11t-64 32.5t-46.5 53t-18 73.5v65q0 20 8.5 40t22.5 37.5
t32.5 31.5t39.5 23q-38 17 -63 52.5t-25 85.5v37q0 36 16 65.5t42.5 50.5t60.5 32t69 11h26q43 0 83 -21.5t68 -58.5l-51 -48q-16 20 -41 39t-59 19h-27q-20 0 -38.5 -5.5t-33 -16.5t-23 -27.5t-8.5 -39.5v-38z" />
    <glyph glyph-name="a.alt" horiz-adv-x="437" 
d="M232 505q47 0 74.5 -11.5t42.5 -31.5t19.5 -47.5t4.5 -59.5v-355h-62l-5 75q-20 -40 -56.5 -61.5t-81.5 -21.5q-36 0 -59.5 9.5t-37 25.5t-19 38.5t-5.5 47.5v42q0 47 25.5 76t63 45t81 22.5t80.5 7.5v47q0 26 -3.5 42.5t-11.5 25.5t-21.5 12.5t-34.5 3.5
q-17 0 -35.5 -4.5t-35.5 -11t-31.5 -14.5t-23.5 -15l-28 58q15 12 34 22t40.5 17.5t43.5 11.5t42 4zM297 254q-34 -2 -65.5 -7.5t-56 -17t-39 -30t-14.5 -45.5v-38q0 -24 16 -39.5t46 -15.5q23 0 43 11t36 27.5t25 35.5t9 35v84z" />
    <glyph glyph-name="Ssmall.alt" horiz-adv-x="439" 
d="M388 226v-82q0 -41 -15 -70t-39 -47t-55 -26.5t-64 -8.5q-58 0 -101 24t-70 69l50 50q20 -35 50.5 -55t67.5 -20q47 0 74.5 18t27.5 63v50l-247 108v100q0 39 14.5 66.5t38.5 45t55 25t63 7.5q24 0 45.5 -7t41 -18.5t35.5 -25t29 -27.5l-50 -49q-15 23 -43.5 40.5
t-60.5 17.5q-14 0 -30.5 -3t-30.5 -11t-23.5 -22.5t-9.5 -38.5v-65z" />
    <glyph glyph-name="s.alt" horiz-adv-x="380" 
d="M350 204v-71q0 -69 -39 -106t-110 -37q-53 0 -95.5 22t-71.5 57l48 52q12 -16 27.5 -28t32.5 -20t33 -12.5t29 -4.5q40 0 56 17.5t16 49.5v45l-216 111v88q0 62 38 97.5t108 35.5q43 0 76.5 -18t65.5 -47l-44 -51q-26 24 -47.5 36t-47.5 12q-36 0 -56 -14.5t-20 -49.5
v-56z" />
    <glyph glyph-name="S.alt" horiz-adv-x="481" 
d="M439 273v-109q0 -44 -15 -76.5t-42 -54t-63.5 -32t-80.5 -10.5q-32 0 -63 7.5t-58.5 22t-51 36.5t-39.5 51l62 44q17 -42 56.5 -66.5t91.5 -24.5q59 0 93 21.5t34 82.5v72l-299 172v110q0 86 53.5 128.5t140.5 42.5q54 0 104 -24.5t88 -74.5l-54 -51q-26 35 -64 57.5
t-79 22.5q-54 0 -83.5 -23t-29.5 -77v-80z" />
    <glyph glyph-name="ffl" unicode="&#xfb04;" horiz-adv-x="724" 
d="M225 729q38 0 73.5 -13.5t66.5 -33.5q22 29 49.5 40t61.5 11q17 0 36 -4t38 -10t37 -13.5t33 -15.5h27v-690h-75v640q-24 13 -50.5 20t-45.5 7q-38 0 -55.5 -24t-17.5 -61v-92h92v-59h-92v-431h-73v431h-74v59h74v86q0 14 1.5 27.5t5.5 24.5q-31 16 -60 24t-52 8
q-39 0 -54.5 -21t-15.5 -56v-93h75v-59h-75v-431h-74v431h-82v59h82v90q0 75 39 111.5t105 37.5z" />
    <glyph glyph-name="ffi" unicode="&#xfb03;" horiz-adv-x="707" 
d="M215 729q45 0 82.5 -16t68.5 -36q17 22 47 40t74 18q20 0 44.5 -7.5t47 -17t41.5 -18.5t28 -12l-23 -65q-10 5 -27.5 13.5t-37 16t-40 13t-37.5 5.5q-38 0 -55.5 -23.5t-17.5 -58.5v-91h87v-59h-88v-431h-75v431h-81v59h81v79q0 21 5 43q-30 20 -63.5 34t-60.5 14
q-38 0 -53.5 -21t-15.5 -56v-93h74v-59h-74v-431h-75v431h-81v59h81v90q0 75 39 111.5t105 37.5zM566 490h75v-490h-75v490z" />
    <glyph glyph-name="ft" horiz-adv-x="565" 
d="M464 65q14 -1 35 4t38 15l20 -55q-20 -14 -50 -23t-55 -9q-65 0 -89 31.5t-24 91.5v311h-80v59h80v144q-20 12 -51 25t-63 13q-38 0 -54 -23t-16 -56v-103h75v-59h-75v-431h-74v431h-82v59h82v103q0 74 39 110.5t105 36.5q24 0 49.5 -5.5t50.5 -14.5t48 -20t42 -22v-188
h107v-59h-108v-306q0 -19 5.5 -31t13 -18.5t16.5 -8.5t15 -2z" />
    <glyph glyph-name="foursuperior" unicode="&#x2074;" horiz-adv-x="369" 
d="M271 467h65v-55h-65v-91h-61v91h-159v43l129 225h91v-213zM210 625h-8l-79 -158h87v158z" />
    <glyph glyph-name="Zcaron" unicode="&#x17d;" horiz-adv-x="502" 
d="M448 680v-40l-298 -570h303v-70h-406v35l305 575h-295v70h391zM244 682l-94 112l35 31l59 -66l59 65l31 -30z" />
    <glyph glyph-name="zcaron" unicode="&#x17e;" horiz-adv-x="394" 
d="M337 490v-45l-207 -379h222v-66h-310v50l209 375h-206v65h292zM192 486l-94 112l35 31l59 -66l59 65l31 -30z" />
    <glyph glyph-name="Scaron" unicode="&#x160;" horiz-adv-x="497" 
d="M452 273v-109q0 -44 -15 -76.5t-42 -54t-63.5 -32t-80.5 -10.5q-32 0 -63 7.5t-58.5 22t-51 36.5t-39.5 51l62 44q17 -42 56.5 -66.5t91.5 -24.5q59 0 93 21.5t34 82.5v72l-299 172v110q0 86 53.5 128.5t140.5 42.5q54 0 104 -24.5t88 -74.5l-54 -51q-26 35 -64 57.5
t-79 22.5q-54 0 -83.5 -23t-29.5 -77v-80zM246 689l-94 112l35 31l59 -66l59 65l31 -30z" />
    <glyph glyph-name="scaron" unicode="&#x161;" horiz-adv-x="378" 
d="M341 204v-71q0 -69 -39 -106t-110 -37q-53 0 -95.5 22t-71.5 57l48 52q12 -16 27.5 -28t32.5 -20t33 -12.5t29 -4.5q40 0 56 17.5t16 49.5v45l-216 111v88q0 62 38 97.5t108 35.5q43 0 76.5 -18t65.5 -47l-44 -51q-26 24 -47.5 36t-47.5 12q-36 0 -56 -14.5t-20 -49.5
v-56zM190 496l-94 112l35 31l59 -66l59 65l31 -30z" />
    <glyph glyph-name="Ydieresis" unicode="&#x178;" horiz-adv-x="537" 
d="M224 273l-203 407h84l158 -324l161 324h83l-207 -407v-273h-76v273zM225 734h-76v83h76v-83zM371 734h-75v83h75v-83z" />
    <glyph glyph-name="Agrave" unicode="&#xc0;" horiz-adv-x="525" 
d="M308 687l195 -687h-78l-59 205h-205l-60 -205h-79l201 687h85zM349 270l-84 321l-86 -321h170zM222 925l80 -148l-43 -36l-91 142z" />
    <glyph glyph-name="Aacute" unicode="&#xc1;" horiz-adv-x="525" 
d="M308 687l195 -687h-78l-59 205h-205l-60 -205h-79l201 687h85zM349 270l-84 321l-86 -321h170zM299 921l52 -38l-92 -140l-42 33z" />
    <glyph glyph-name="Acircumflex" unicode="&#xc2;" horiz-adv-x="525" 
d="M308 687l195 -687h-78l-59 205h-205l-60 -205h-79l201 687h85zM349 270l-84 321l-86 -321h170zM259 873l107 -91l-29 -44l-78 62l-78 -61l-30 45z" />
    <glyph glyph-name="Atilde" unicode="&#xc3;" horiz-adv-x="525" 
d="M308 687l195 -687h-78l-59 205h-205l-60 -205h-79l201 687h85zM349 270l-84 321l-86 -321h170zM206 799q-14 0 -23.5 -11.5t-15.5 -27.5l-38 30q19 37 36 53.5t44 16.5q16 0 31.5 -7t29 -15.5t25 -15t20.5 -6.5q14 1 20.5 12t13.5 25l41 -26q-11 -30 -29 -51t-44 -21
q-20 0 -35.5 7t-28 15t-24 15t-23.5 7z" />
    <glyph glyph-name="Adieresis" unicode="&#xc4;" horiz-adv-x="525" 
d="M308 687l195 -687h-78l-59 205h-205l-60 -205h-79l201 687h85zM349 270l-84 321l-86 -321h170zM224 753h-76v83h76v-83zM370 753h-75v83h75v-83z" />
    <glyph glyph-name="Aring" unicode="&#xc5;" horiz-adv-x="525" 
d="M308 687l195 -687h-78l-59 205h-205l-60 -205h-79l201 687h85zM349 270l-84 321l-86 -321h170zM265 748q-35 0 -54.5 22.5t-19.5 55.5q0 42 23 60t51 18q37 0 55.5 -22t18.5 -56q0 -40 -22.5 -59t-51.5 -19zM233 825q0 -25 11 -31.5t22 -6.5q14 0 23.5 8.5t9.5 29.5
q0 26 -11 34t-22 8q-14 0 -23.5 -10.5t-9.5 -31.5z" />
    <glyph glyph-name="Egrave" unicode="&#xc8;" horiz-adv-x="449" 
d="M156 313v-243h246v-70h-320v680h301v-70h-227v-229h191v-68h-191zM192 917l80 -148l-43 -36l-91 142z" />
    <glyph glyph-name="Eacute" unicode="&#xc9;" horiz-adv-x="449" 
d="M156 313v-243h246v-70h-320v680h301v-70h-227v-229h191v-68h-191zM269 921l52 -38l-92 -140l-42 33z" />
    <glyph glyph-name="Ecircumflex" unicode="&#xca;" horiz-adv-x="449" 
d="M156 313v-243h246v-70h-320v680h301v-70h-227v-229h191v-68h-191zM229 873l107 -91l-29 -44l-78 62l-78 -61l-30 45z" />
    <glyph glyph-name="Edieresis" unicode="&#xcb;" horiz-adv-x="449" 
d="M156 313v-243h246v-70h-320v680h301v-70h-227v-229h191v-68h-191zM194 753h-76v83h76v-83zM340 753h-75v83h75v-83z" />
    <glyph glyph-name="Igrave" unicode="&#xcc;" horiz-adv-x="294" 
d="M119 680h76v-680h-76v680zM104 927l80 -148l-43 -36l-91 142z" />
    <glyph glyph-name="Iacute" unicode="&#xcd;" horiz-adv-x="294" 
d="M117 680h76v-680h-76v680zM177 921l52 -38l-92 -140l-42 33z" />
    <glyph glyph-name="Icircumflex" unicode="&#xce;" horiz-adv-x="294" 
d="M116 680h76v-680h-76v680zM139 874l107 -91l-29 -44l-78 62l-78 -61l-30 45z" />
    <glyph glyph-name="Idieresis" unicode="&#xcf;" horiz-adv-x="294" 
d="M127 680h76v-680h-76v680zM114 751h-76v83h76v-83zM260 751h-75v83h75v-83z" />
    <glyph glyph-name="Ntilde" unicode="&#xd1;" horiz-adv-x="615" 
d="M464 680h70v-680h-113l-270 584v-584h-69v680h107l275 -591v591zM242 789q-14 0 -23.5 -11.5t-15.5 -27.5l-38 30q19 37 36 53.5t44 16.5q16 0 31.5 -7t29 -15.5t25 -15t20.5 -6.5q14 1 20.5 12t13.5 25l41 -26q-11 -30 -29 -51t-44 -21q-20 0 -35.5 7t-28 15t-24 15
t-23.5 7z" />
    <glyph glyph-name="Ograve" unicode="&#xd2;" horiz-adv-x="567" 
d="M289 690q47 0 87 -14t70 -40.5t47 -63.5t17 -83v-298q0 -48 -17 -85t-46.5 -63t-70 -39.5t-87.5 -13.5h-12q-48 0 -89 13.5t-70 39t-45.5 63t-16.5 85.5v298q0 45 17 82.5t47 63.5t70 40.5t86 14.5h13v0zM434 488q0 29 -11.5 53.5t-31.5 42t-46 27t-56 9.5h-13
q-30 0 -56 -9.5t-45.5 -26.5t-31 -41t-11.5 -54v-298q0 -64 40.5 -97.5t104.5 -33.5h12q64 0 104.5 33t40.5 98v297zM235 927l80 -148l-43 -36l-91 142z" />
    <glyph glyph-name="Oacute" unicode="&#xd3;" horiz-adv-x="567" 
d="M289 690q47 0 87 -14t70 -40.5t47 -63.5t17 -83v-298q0 -48 -17 -85t-46.5 -63t-70 -39.5t-87.5 -13.5h-12q-48 0 -89 13.5t-70 39t-45.5 63t-16.5 85.5v298q0 45 17 82.5t47 63.5t70 40.5t86 14.5h13v0zM434 488q0 29 -11.5 53.5t-31.5 42t-46 27t-56 9.5h-13
q-30 0 -56 -9.5t-45.5 -26.5t-31 -41t-11.5 -54v-298q0 -64 40.5 -97.5t104.5 -33.5h12q64 0 104.5 33t40.5 98v297zM312 921l52 -38l-92 -140l-42 33z" />
    <glyph glyph-name="Ocircumflex" unicode="&#xd4;" horiz-adv-x="567" 
d="M289 690q47 0 87 -14t70 -40.5t47 -63.5t17 -83v-298q0 -48 -17 -85t-46.5 -63t-70 -39.5t-87.5 -13.5h-12q-48 0 -89 13.5t-70 39t-45.5 63t-16.5 85.5v298q0 45 17 82.5t47 63.5t70 40.5t86 14.5h13v0zM434 488q0 29 -11.5 53.5t-31.5 42t-46 27t-56 9.5h-13
q-30 0 -56 -9.5t-45.5 -26.5t-31 -41t-11.5 -54v-298q0 -64 40.5 -97.5t104.5 -33.5h12q64 0 104.5 33t40.5 98v297zM272 883l107 -91l-29 -44l-78 62l-78 -61l-30 45z" />
    <glyph glyph-name="Otilde" unicode="&#xd5;" horiz-adv-x="567" 
d="M289 690q47 0 87 -14t70 -40.5t47 -63.5t17 -83v-298q0 -48 -17 -85t-46.5 -63t-70 -39.5t-87.5 -13.5h-12q-48 0 -89 13.5t-70 39t-45.5 63t-16.5 85.5v298q0 45 17 82.5t47 63.5t70 40.5t86 14.5h13v0zM434 488q0 29 -11.5 53.5t-31.5 42t-46 27t-56 9.5h-13
q-30 0 -56 -9.5t-45.5 -26.5t-31 -41t-11.5 -54v-298q0 -64 40.5 -97.5t104.5 -33.5h12q64 0 104.5 33t40.5 98v297zM218 799q-14 0 -23.5 -11.5t-15.5 -27.5l-38 30q19 37 36 53.5t44 16.5q16 0 31.5 -7t29 -15.5t25 -15t20.5 -6.5q14 1 20.5 12t13.5 25l41 -26
q-11 -30 -29 -51t-44 -21q-20 0 -35.5 7t-28 15t-24 15t-23.5 7z" />
    <glyph glyph-name="Odieresis" unicode="&#xd6;" horiz-adv-x="567" 
d="M289 690q47 0 87 -14t70 -40.5t47 -63.5t17 -83v-298q0 -48 -17 -85t-46.5 -63t-70 -39.5t-87.5 -13.5h-12q-48 0 -89 13.5t-70 39t-45.5 63t-16.5 85.5v298q0 45 17 82.5t47 63.5t70 40.5t86 14.5h13v0zM434 488q0 29 -11.5 53.5t-31.5 42t-46 27t-56 9.5h-13
q-30 0 -56 -9.5t-45.5 -26.5t-31 -41t-11.5 -54v-298q0 -64 40.5 -97.5t104.5 -33.5h12q64 0 104.5 33t40.5 98v297zM237 753h-76v83h76v-83zM383 753h-75v83h75v-83z" />
    <glyph glyph-name="Ugrave" unicode="&#xd9;" horiz-adv-x="602" 
d="M444 680h76v-485q0 -53 -17 -91.5t-46 -64t-69 -37.5t-86 -12q-108 0 -164 55t-56 150v485h76v-485q0 -36 11.5 -62t31 -42t45.5 -23.5t56 -7.5q61 0 101.5 34t40.5 101v485zM248 897l80 -148l-43 -36l-91 142z" />
    <glyph glyph-name="Uacute" unicode="&#xda;" horiz-adv-x="602" 
d="M444 680h76v-485q0 -53 -17 -91.5t-46 -64t-69 -37.5t-86 -12q-108 0 -164 55t-56 150v485h76v-485q0 -36 11.5 -62t31 -42t45.5 -23.5t56 -7.5q61 0 101.5 34t40.5 101v485zM325 891l52 -38l-92 -140l-42 33z" />
    <glyph glyph-name="Ucircumflex" unicode="&#xdb;" horiz-adv-x="602" 
d="M444 680h76v-485q0 -53 -17 -91.5t-46 -64t-69 -37.5t-86 -12q-108 0 -164 55t-56 150v485h76v-485q0 -36 11.5 -62t31 -42t45.5 -23.5t56 -7.5q61 0 101.5 34t40.5 101v485zM286 876l107 -91l-29 -44l-78 62l-78 -61l-30 45z" />
    <glyph glyph-name="Udieresis" unicode="&#xdc;" horiz-adv-x="602" 
d="M444 680h76v-485q0 -53 -17 -91.5t-46 -64t-69 -37.5t-86 -12q-108 0 -164 55t-56 150v485h76v-485q0 -36 11.5 -62t31 -42t45.5 -23.5t56 -7.5q61 0 101.5 34t40.5 101v485zM250 754h-76v83h76v-83zM396 754h-75v83h75v-83z" />
    <glyph glyph-name="Yacute" unicode="&#xdd;" horiz-adv-x="537" 
d="M224 273l-203 407h84l158 -324l161 324h83l-207 -407v-273h-76v273zM300 892l52 -38l-92 -140l-42 33z" />
    <glyph glyph-name="agrave" unicode="&#xe0;" horiz-adv-x="438" 
d="M225 500q78 0 113.5 -36.5t35.5 -114.5v-349h-62l-5 66q-19 -32 -49.5 -53.5t-71.5 -21.5q-64 0 -101 31.5t-37 95.5v126l252 53v52q0 47 -17.5 65t-63.5 18q-13 0 -30.5 -4.5t-36 -12t-35.5 -16.5t-29 -17l-28 59q14 10 34.5 20.5t43 19t45.5 14t42 5.5zM299 238
l-175 -37v-81q0 -34 22 -48t56 -14q20 0 37.5 7.5t31 20.5t21 30.5t7.5 38.5v83zM164 728l80 -148l-43 -36l-91 142z" />
    <glyph glyph-name="aacute" unicode="&#xe1;" horiz-adv-x="438" 
d="M225 500q78 0 113.5 -36.5t35.5 -114.5v-349h-62l-5 66q-19 -32 -49.5 -53.5t-71.5 -21.5q-64 0 -101 31.5t-37 95.5v126l252 53v52q0 47 -17.5 65t-63.5 18q-13 0 -30.5 -4.5t-36 -12t-35.5 -16.5t-29 -17l-28 59q14 10 34.5 20.5t43 19t45.5 14t42 5.5zM299 238
l-175 -37v-81q0 -34 22 -48t56 -14q20 0 37.5 7.5t31 20.5t21 30.5t7.5 38.5v83zM241 721l52 -38l-92 -140l-42 33z" />
    <glyph glyph-name="acircumflex" unicode="&#xe2;" horiz-adv-x="438" 
d="M225 500q78 0 113.5 -36.5t35.5 -114.5v-349h-62l-5 66q-19 -32 -49.5 -53.5t-71.5 -21.5q-64 0 -101 31.5t-37 95.5v126l252 53v52q0 47 -17.5 65t-63.5 18q-13 0 -30.5 -4.5t-36 -12t-35.5 -16.5t-29 -17l-28 59q14 10 34.5 20.5t43 19t45.5 14t42 5.5zM299 238
l-175 -37v-81q0 -34 22 -48t56 -14q20 0 37.5 7.5t31 20.5t21 30.5t7.5 38.5v83zM203 695l107 -91l-29 -44l-78 62l-78 -61l-30 45z" />
    <glyph glyph-name="atilde" unicode="&#xe3;" horiz-adv-x="438" 
d="M225 500q78 0 113.5 -36.5t35.5 -114.5v-349h-62l-5 66q-19 -32 -49.5 -53.5t-71.5 -21.5q-64 0 -101 31.5t-37 95.5v126l252 53v52q0 47 -17.5 65t-63.5 18q-13 0 -30.5 -4.5t-36 -12t-35.5 -16.5t-29 -17l-28 59q14 10 34.5 20.5t43 19t45.5 14t42 5.5zM299 238
l-175 -37v-81q0 -34 22 -48t56 -14q20 0 37.5 7.5t31 20.5t21 30.5t7.5 38.5v83zM149 629q-14 0 -23.5 -11.5t-15.5 -27.5l-38 30q19 37 36 53.5t44 16.5q16 0 31.5 -7t29 -15.5t25 -15t20.5 -6.5q14 1 20.5 12t13.5 25l41 -26q-11 -30 -29 -51t-44 -21q-20 0 -35.5 7
t-28 15t-24 15t-23.5 7z" />
    <glyph glyph-name="adieresis" unicode="&#xe4;" horiz-adv-x="438" 
d="M225 500q78 0 113.5 -36.5t35.5 -114.5v-349h-62l-5 66q-19 -32 -49.5 -53.5t-71.5 -21.5q-64 0 -101 31.5t-37 95.5v126l252 53v52q0 47 -17.5 65t-63.5 18q-13 0 -30.5 -4.5t-36 -12t-35.5 -16.5t-29 -17l-28 59q14 10 34.5 20.5t43 19t45.5 14t42 5.5zM299 238
l-175 -37v-81q0 -34 22 -48t56 -14q20 0 37.5 7.5t31 20.5t21 30.5t7.5 38.5v83zM166 575h-76v83h76v-83zM312 575h-75v83h75v-83z" />
    <glyph glyph-name="aring" unicode="&#xe5;" horiz-adv-x="438" 
d="M225 500q78 0 113.5 -36.5t35.5 -114.5v-349h-62l-5 66q-19 -32 -49.5 -53.5t-71.5 -21.5q-64 0 -101 31.5t-37 95.5v126l252 53v52q0 47 -17.5 65t-63.5 18q-13 0 -30.5 -4.5t-36 -12t-35.5 -16.5t-29 -17l-28 59q14 10 34.5 20.5t43 19t45.5 14t42 5.5zM299 238
l-175 -37v-81q0 -34 22 -48t56 -14q20 0 37.5 7.5t31 20.5t21 30.5t7.5 38.5v83zM208 557q-35 0 -54.5 22.5t-19.5 55.5q0 42 23 60t51 18q37 0 55.5 -22t18.5 -56q0 -40 -22.5 -59t-51.5 -19zM176 634q0 -25 11 -31.5t22 -6.5q14 0 23.5 8.5t9.5 29.5q0 26 -11 34t-22 8
q-14 0 -23.5 -10.5t-9.5 -31.5z" />
    <glyph glyph-name="egrave" unicode="&#xe8;" horiz-adv-x="429" 
d="M237 60q30 0 56.5 10t55.5 37l42 -53q-34 -35 -72.5 -49.5t-84.5 -14.5q-87 0 -137 44.5t-50 131.5v170q0 38 13 68.5t36 51.5t55 32.5t70 11.5q36 0 66 -11.5t51.5 -33t33.5 -52t12 -67.5v-74l-262 -47v-49q0 -51 32 -78.5t83 -27.5zM221 430q-42 0 -70.5 -25.5
t-28.5 -68.5v-65l187 34l-2 43q-6 40 -25.5 61t-60.5 21zM173 717l80 -148l-43 -36l-91 142z" />
    <glyph glyph-name="eacute" unicode="&#xe9;" horiz-adv-x="429" 
d="M237 60q30 0 56.5 10t55.5 37l42 -53q-34 -35 -72.5 -49.5t-84.5 -14.5q-87 0 -137 44.5t-50 131.5v170q0 38 13 68.5t36 51.5t55 32.5t70 11.5q36 0 66 -11.5t51.5 -33t33.5 -52t12 -67.5v-74l-262 -47v-49q0 -51 32 -78.5t83 -27.5zM221 430q-42 0 -70.5 -25.5
t-28.5 -68.5v-65l187 34l-2 43q-6 40 -25.5 61t-60.5 21zM250 721l52 -38l-92 -140l-42 33z" />
    <glyph glyph-name="ecircumflex" unicode="&#xea;" horiz-adv-x="429" 
d="M237 60q30 0 56.5 10t55.5 37l42 -53q-34 -35 -72.5 -49.5t-84.5 -14.5q-87 0 -137 44.5t-50 131.5v170q0 38 13 68.5t36 51.5t55 32.5t70 11.5q36 0 66 -11.5t51.5 -33t33.5 -52t12 -67.5v-74l-262 -47v-49q0 -51 32 -78.5t83 -27.5zM221 430q-42 0 -70.5 -25.5
t-28.5 -68.5v-65l187 34l-2 43q-6 40 -25.5 61t-60.5 21zM211 694l107 -91l-29 -44l-78 62l-78 -61l-30 45z" />
    <glyph glyph-name="edieresis" unicode="&#xeb;" horiz-adv-x="429" 
d="M237 60q30 0 56.5 10t55.5 37l42 -53q-34 -35 -72.5 -49.5t-84.5 -14.5q-87 0 -137 44.5t-50 131.5v170q0 38 13 68.5t36 51.5t55 32.5t70 11.5q36 0 66 -11.5t51.5 -33t33.5 -52t12 -67.5v-74l-262 -47v-49q0 -51 32 -78.5t83 -27.5zM221 430q-42 0 -70.5 -25.5
t-28.5 -68.5v-65l187 34l-2 43q-6 40 -25.5 61t-60.5 21zM175 567h-76v83h76v-83zM321 567h-75v83h75v-83z" />
    <glyph glyph-name="igrave" unicode="&#xec;" horiz-adv-x="246" 
d="M84 490h74v-490h-74v490zM72 727l80 -148l-43 -36l-91 142z" />
    <glyph glyph-name="iacute" unicode="&#xed;" horiz-adv-x="246" 
d="M85 490h74v-490h-74v490zM148 721l52 -38l-92 -140l-42 33z" />
    <glyph glyph-name="icircumflex" unicode="&#xee;" horiz-adv-x="246" 
d="M81 490h74v-490h-74v490zM117 703l107 -91l-29 -44l-78 62l-78 -61l-30 45z" />
    <glyph glyph-name="idieresis" unicode="&#xef;" horiz-adv-x="246" 
d="M93 490h74v-490h-74v490zM89 575h-76v83h76v-83zM235 575h-75v83h75v-83z" />
    <glyph glyph-name="ntilde" unicode="&#xf1;" horiz-adv-x="489" 
d="M279 501q78 0 111.5 -41.5t33.5 -119.5v-340h-76v331q0 46 -18 73.5t-64 27.5q-23 0 -44.5 -11.5t-37.5 -30.5t-25.5 -42t-9.5 -46v-302h-76v490h70l5 -65q25 38 54 57t77 19zM181 629q-14 0 -23.5 -11.5t-15.5 -27.5l-38 30q19 37 36 53.5t44 16.5q16 0 31.5 -7
t29 -15.5t25 -15t20.5 -6.5q14 1 20.5 12t13.5 25l41 -26q-11 -30 -29 -51t-44 -21q-20 0 -35.5 7t-28 15t-24 15t-23.5 7z" />
    <glyph glyph-name="ograve" unicode="&#xf2;" horiz-adv-x="446" 
d="M223 500q38 0 70 -11t55.5 -31.5t37 -50.5t13.5 -68v-187q0 -39 -13 -69t-36 -50.5t-55.5 -31.5t-70.5 -11q-78 0 -127.5 42t-49.5 120v187q0 38 13 68t36.5 50.5t56 31.5t70.5 11zM323 339q0 48 -26 69.5t-74 21.5q-46 0 -73 -23t-27 -68v-186q0 -49 26 -71t75 -22
q46 0 72.5 22.5t26.5 69.5v187zM176 717l80 -148l-43 -36l-91 142z" />
    <glyph glyph-name="oacute" unicode="&#xf3;" horiz-adv-x="446" 
d="M223 500q38 0 70 -11t55.5 -31.5t37 -50.5t13.5 -68v-187q0 -39 -13 -69t-36 -50.5t-55.5 -31.5t-70.5 -11q-78 0 -127.5 42t-49.5 120v187q0 38 13 68t36.5 50.5t56 31.5t70.5 11zM323 339q0 48 -26 69.5t-74 21.5q-46 0 -73 -23t-27 -68v-186q0 -49 26 -71t75 -22
q46 0 72.5 22.5t26.5 69.5v187zM253 721l52 -38l-92 -140l-42 33z" />
    <glyph glyph-name="ocircumflex" unicode="&#xf4;" horiz-adv-x="446" 
d="M223 500q38 0 70 -11t55.5 -31.5t37 -50.5t13.5 -68v-187q0 -39 -13 -69t-36 -50.5t-55.5 -31.5t-70.5 -11q-78 0 -127.5 42t-49.5 120v187q0 38 13 68t36.5 50.5t56 31.5t70.5 11zM323 339q0 48 -26 69.5t-74 21.5q-46 0 -73 -23t-27 -68v-186q0 -49 26 -71t75 -22
q46 0 72.5 22.5t26.5 69.5v187zM213 694l107 -91l-29 -44l-78 62l-78 -61l-30 45z" />
    <glyph glyph-name="otilde" unicode="&#xf5;" horiz-adv-x="446" 
d="M223 500q38 0 70 -11t55.5 -31.5t37 -50.5t13.5 -68v-187q0 -39 -13 -69t-36 -50.5t-55.5 -31.5t-70.5 -11q-78 0 -127.5 42t-49.5 120v187q0 38 13 68t36.5 50.5t56 31.5t70.5 11zM323 339q0 48 -26 69.5t-74 21.5q-46 0 -73 -23t-27 -68v-186q0 -49 26 -71t75 -22
q46 0 72.5 22.5t26.5 69.5v187zM160 610q-14 0 -23.5 -11.5t-15.5 -27.5l-38 30q19 37 36 53.5t44 16.5q16 0 31.5 -7t29 -15.5t25 -15t20.5 -6.5q14 1 20.5 12t13.5 25l41 -26q-11 -30 -29 -51t-44 -21q-20 0 -35.5 7t-28 15t-24 15t-23.5 7z" />
    <glyph glyph-name="odieresis" unicode="&#xf6;" horiz-adv-x="446" 
d="M223 500q38 0 70 -11t55.5 -31.5t37 -50.5t13.5 -68v-187q0 -39 -13 -69t-36 -50.5t-55.5 -31.5t-70.5 -11q-78 0 -127.5 42t-49.5 120v187q0 38 13 68t36.5 50.5t56 31.5t70.5 11zM323 339q0 48 -26 69.5t-74 21.5q-46 0 -73 -23t-27 -68v-186q0 -49 26 -71t75 -22
q46 0 72.5 22.5t26.5 69.5v187zM178 565h-76v83h76v-83zM324 565h-75v83h75v-83z" />
    <glyph glyph-name="ugrave" unicode="&#xf9;" horiz-adv-x="457" 
d="M317 490h76v-338q0 -78 -42 -120t-119 -42q-78 0 -119 42t-41 120v338h77v-338q0 -46 18.5 -69t64.5 -23q45 0 65 23t20 69v338zM182 717l80 -148l-43 -36l-91 142z" />
    <glyph glyph-name="uacute" unicode="&#xfa;" horiz-adv-x="457" 
d="M317 490h76v-338q0 -78 -42 -120t-119 -42q-78 0 -119 42t-41 120v338h77v-338q0 -46 18.5 -69t64.5 -23q45 0 65 23t20 69v338zM259 711l52 -38l-92 -140l-42 33z" />
    <glyph glyph-name="ucircumflex" unicode="&#xfb;" horiz-adv-x="457" 
d="M317 490h76v-338q0 -78 -42 -120t-119 -42q-78 0 -119 42t-41 120v338h77v-338q0 -46 18.5 -69t64.5 -23q45 0 65 23t20 69v338zM219 703l107 -91l-29 -44l-78 62l-78 -61l-30 45z" />
    <glyph glyph-name="udieresis" unicode="&#xfc;" horiz-adv-x="457" 
d="M317 490h76v-338q0 -78 -42 -120t-119 -42q-78 0 -119 42t-41 120v338h77v-338q0 -46 18.5 -69t64.5 -23q45 0 65 23t20 69v338zM184 584h-76v83h76v-83zM330 584h-75v83h75v-83z" />
    <glyph glyph-name="yacute" unicode="&#xfd;" horiz-adv-x="394" 
d="M160 -14l-141 504h78l102 -412l101 412h79l-161 -560q-12 -42 -30.5 -71.5t-42.5 -47.5t-54 -26t-66 -9l-6 62q49 2 81.5 30t47.5 75zM232 711l52 -38l-92 -140l-42 33z" />
    <glyph glyph-name="ydieresis" unicode="&#xff;" horiz-adv-x="394" 
d="M160 -14l-141 504h78l102 -412l101 412h79l-161 -560q-12 -42 -30.5 -71.5t-42.5 -47.5t-54 -26t-66 -9l-6 62q49 2 81.5 30t47.5 75zM157 584h-76v83h76v-83zM303 584h-75v83h75v-83z" />
    <glyph glyph-name="glyph330" horiz-adv-x="540" 
d="M103 -74l312 836h59l-309 -836h-62zM289 690q47 0 87 -14t70 -40.5t47 -63.5t17 -83v-298q0 -48 -17 -85t-46.5 -63t-70 -39.5t-87.5 -13.5h-12q-48 0 -89 13.5t-70 39t-45.5 63t-16.5 85.5v298q0 45 17 82.5t47 63.5t70 40.5t86 14.5h13v0zM434 488q0 29 -11.5 53.5
t-31.5 42t-46 27t-56 9.5h-13q-30 0 -56 -9.5t-45.5 -26.5t-31 -41t-11.5 -54v-298q0 -64 40.5 -97.5t104.5 -33.5h12q64 0 104.5 33t40.5 98v297z" />
    <glyph glyph-name="glyph331" horiz-adv-x="433" 
d="M208 501q37 0 69 -11t55.5 -32t37 -51t13.5 -68v-187q0 -39 -13 -69t-36 -50.5t-55.5 -31.5t-70.5 -11q-78 0 -127.5 42t-49.5 120v187q0 38 13 68t36.5 51t56 32t71.5 11zM307 340q0 48 -25.5 69.5t-73.5 21.5q-47 0 -74 -23.5t-27 -68.5v-186q0 -49 26 -71t75 -22
q46 0 72.5 22.5t26.5 69.5v188zM52 -66l271 612h48l-267 -612h-52z" />
    <glyph glyph-name="quotesinglbase" unicode="&#x201a;" horiz-adv-x="221" 
d="M182 83v-26q0 -37 -5.5 -65.5t-15 -50t-22 -38t-26.5 -30.5l-37 26q17 23 27 50t10 70v64h69z" />
    <glyph glyph-name="glyph333" horiz-adv-x="689" 
d="M223 502q73 0 105 -37t32 -122l-34 -250q-10 -30 -25.5 -49.5t-34.5 -31.5t-40 -16.5t-43 -4.5q-64 0 -100 31.5t-36 95.5v122l251 41v69q0 47 -18.5 65.5t-64.5 18.5q-13 0 -30.5 -4.5t-35.5 -12t-35 -16.5t-28 -17l-29 59q15 11 36 22t44 19t45.5 13t40.5 5zM299 223
l-177 -28v-74q0 -34 22 -48t56 -14q40 0 69.5 23t29.5 65v76zM488 58q30 0 56.5 11.5t55.5 37.5l42 -53q-34 -34 -72.5 -49t-84.5 -15q-87 0 -134.5 42t-47.5 129l6 164q0 38 11.5 70t32.5 55t51 36t68 13q73 0 118 -38.5t45 -122.5v-70l-262 -38v-64q0 -51 32 -79.5
t83 -28.5zM472 429q-42 0 -70.5 -28t-28.5 -71v-43l187 25v37q0 38 -23.5 59t-64.5 21z" />
    <glyph glyph-name="Oslash" unicode="&#xd8;" horiz-adv-x="540" 
d="M289 690q49 0 92 -16l34 88h59l-43 -116q36 -26 57.5 -66t21.5 -91v-298q0 -48 -17 -85t-46.5 -63t-70 -39.5t-87.5 -13.5h-12q-23 0 -44 3.5t-40 8.5l-28 -76h-62l37 99q-40 26 -62 67.5t-22 98.5v298q0 45 17 82.5t47 63.5t70 40.5t86 14.5h13v0zM132 191
q0 -29 10 -51.5t28 -37.5l185 504q-31 14 -66 14h-13q-30 0 -56 -9.5t-45.5 -26.5t-31 -41t-11.5 -54v-298v0zM434 488q0 23 -9.5 43t-26.5 34l-180 -497q13 -5 28 -6.5t31 -1.5h12q64 0 104.5 33t40.5 98v297z" />
    <glyph glyph-name="oslash" unicode="&#xf8;" horiz-adv-x="433" 
d="M52 -66l39 90q-28 21 -44 52.5t-16 75.5v187q0 38 13 68t36.5 51t56 32t71.5 11q49 0 85 -21l30 66h48l-39 -89q23 -20 37 -50t14 -68v-187q0 -39 -13 -69t-36 -50.5t-55.5 -31.5t-70.5 -11q-42 0 -75 12l-29 -68h-52zM107 153q0 -33 17 -53l142 316q-11 7 -26 11t-32 4
q-47 0 -74 -23.5t-27 -68.5v-186v0zM307 340q0 23 -7 38l-139 -311q18 -7 47 -7q46 0 72.5 22.5t26.5 69.5v188z" />
    <glyph glyph-name="ae" unicode="&#xe6;" horiz-adv-x="689" 
d="M488 58q30 0 56.5 11.5t55.5 37.5l42 -53q-34 -34 -72.5 -49t-84.5 -15q-61 0 -103.5 21t-62.5 65q-23 -50 -59.5 -67.5t-76.5 -17.5q-64 0 -100 31.5t-36 95.5v122l251 41v69q0 47 -18.5 65.5t-64.5 18.5q-13 0 -30.5 -4.5t-35.5 -12t-35 -16.5t-28 -17l-29 59
q15 11 36 22t44 19t45.5 13t40.5 5q93 0 121 -65q20 29 52.5 45.5t75.5 16.5q73 0 118 -38.5t45 -122.5v-70l-262 -38v-64q0 -51 32 -79.5t83 -28.5zM472 429q-42 0 -70.5 -28t-28.5 -71v-43l187 25v37q0 38 -23.5 59t-64.5 21zM299 223l-177 -28v-74q0 -34 22 -48t56 -14
q40 0 69.5 23t29.5 65v76z" />
    <glyph glyph-name="Q" unicode="Q" horiz-adv-x="562" 
d="M385 7q-45 -17 -96 -17h-12q-48 0 -89 13.5t-70 39t-45.5 63t-16.5 85.5v298q0 45 17 82.5t47 63.5t70 40.5t86 14.5h13q47 0 87 -14t70 -40.5t47 -63.5t17 -83v-298q0 -51 -18.5 -89t-51.5 -64l13 -19q27 -44 92 -44v-54q-26 0 -46.5 2t-37.5 8.5t-31.5 19t-28.5 33.5z
M434 488q0 29 -11.5 53.5t-31.5 42t-46 27t-56 9.5h-13q-30 0 -56 -9.5t-45.5 -26.5t-31 -41t-11.5 -54v-298q0 -64 40.5 -97.5t104.5 -33.5h12q32 0 55 10l-79 124l49 34l85 -128q35 33 35 91v297z" />
    <glyph glyph-name="Qtounge" horiz-adv-x="650" 
d="M328 194l49 34l139 -209q27 -44 91 -44v-54q-25 0 -45.5 2t-37.5 8.5t-31.5 19t-28.5 33.5z" />
    <glyph glyph-name="dotlessi" unicode="&#x131;" horiz-adv-x="246" 
d="M82 490h74v-490h-74v490z" />
    <glyph glyph-name="fraction" unicode="&#x2044;" horiz-adv-x="442" 
d="M5 0l366 680h69l-362 -680h-73z" />
    </font>
</defs>
</svg>
